<svg xmlns="http://www.w3.org/2000/svg" xmlns:xlink="http://www.w3.org/1999/xlink" width="87" zoomAndPan="magnify" viewBox="0 0 65.25 37.5" height="50" preserveAspectRatio="xMidYMid meet" version="1.0"><defs><g/></defs><g fill="#ffffff" fill-opacity="1"><g transform="translate(11.670353, 25.939599)"><g><path d="M 6.042969 -19.324219 C 6.082031 -19.324219 6.28125 -19.601562 6.363281 -19.800781 C 6.421875 -19.917969 6.421875 -19.941406 6.320312 -19.839844 C 6.261719 -19.800781 6.183594 -19.660156 6.121094 -19.542969 C 6.042969 -19.421875 6.023438 -19.324219 6.042969 -19.324219 Z M 8.25 -14.113281 C 8.210938 -14.113281 7.851562 -13.5 7.851562 -13.398438 C 7.851562 -13.359375 7.753906 -13.179688 7.613281 -13 C 7.476562 -12.824219 7.316406 -12.542969 7.277344 -12.367188 C 7.214844 -12.207031 7.15625 -12.066406 7.117188 -12.046875 C 7.078125 -12.046875 6.957031 -11.886719 6.859375 -11.648438 C 6.660156 -11.273438 6.601562 -11.035156 6.699219 -10.953125 C 6.777344 -10.875 6.839844 -10.933594 6.820312 -11.074219 C 6.777344 -11.191406 6.777344 -11.191406 6.839844 -11.132812 C 6.878906 -11.074219 6.9375 -11.132812 7.058594 -11.410156 C 7.15625 -11.609375 7.453125 -12.167969 7.714844 -12.664062 C 8.191406 -13.539062 8.289062 -13.738281 8.152344 -13.65625 C 8.089844 -13.617188 8.070312 -13.636719 8.132812 -13.757812 C 8.152344 -13.796875 8.210938 -13.816406 8.25 -13.816406 C 8.289062 -13.796875 8.328125 -13.816406 8.328125 -13.835938 C 8.328125 -13.875 8.308594 -13.894531 8.289062 -13.894531 C 8.25 -13.894531 8.25 -13.957031 8.25 -14.015625 C 8.269531 -14.074219 8.269531 -14.113281 8.25 -14.113281 Z M 13.179688 -13.5 C 13.160156 -13.480469 13.140625 -13.417969 13.140625 -13.378906 C 13.140625 -13.199219 13.238281 -13.339844 13.300781 -13.597656 C 13.359375 -13.738281 13.398438 -13.9375 13.417969 -13.996094 C 13.4375 -14.074219 13.417969 -14.113281 13.398438 -14.113281 C 13.339844 -14.113281 13.238281 -13.796875 13.238281 -13.597656 C 13.21875 -13.558594 13.199219 -13.519531 13.179688 -13.5 Z M 12.683594 -10.773438 C 12.761719 -11.191406 12.761719 -11.273438 12.824219 -11.511719 C 12.882812 -11.75 12.882812 -11.847656 12.800781 -11.789062 C 12.761719 -11.75 12.542969 -10.734375 12.542969 -10.617188 C 12.542969 -10.457031 12.644531 -10.554688 12.683594 -10.773438 Z M 13.019531 -12.304688 C 13.082031 -12.464844 13.160156 -13.019531 13.121094 -12.980469 C 13.042969 -12.902344 12.902344 -12.324219 12.941406 -12.265625 C 12.960938 -12.226562 13 -12.246094 13.019531 -12.304688 Z M 11.550781 -5.546875 C 11.53125 -5.507812 11.53125 -5.445312 11.570312 -5.445312 C 11.648438 -5.445312 11.648438 -5.488281 11.789062 -6.164062 C 11.886719 -6.699219 11.886719 -6.757812 11.828125 -6.757812 C 11.808594 -6.757812 11.730469 -6.5 11.667969 -6.203125 C 11.609375 -5.882812 11.550781 -5.605469 11.550781 -5.546875 Z M 13.4375 -14.234375 C 13.480469 -14.234375 13.5 -14.273438 13.5 -14.332031 C 13.5 -14.394531 13.519531 -14.492188 13.558594 -14.53125 C 13.617188 -14.613281 13.894531 -15.546875 14.234375 -16.71875 C 14.292969 -16.9375 14.414062 -17.316406 14.492188 -17.554688 C 14.570312 -17.792969 14.730469 -18.289062 14.851562 -18.648438 C 14.949219 -18.984375 15.109375 -19.503906 15.207031 -19.742188 C 15.367188 -20.21875 15.40625 -20.515625 15.308594 -20.335938 C 15.246094 -20.277344 14.472656 -17.953125 14.351562 -17.496094 C 14.332031 -17.375 14.132812 -16.820312 13.957031 -16.242188 C 13.65625 -15.308594 13.378906 -14.375 13.378906 -14.273438 C 13.378906 -14.253906 13.398438 -14.234375 13.4375 -14.234375 Z M 4.074219 -11.53125 C 4.074219 -11.550781 4.035156 -11.570312 3.996094 -11.570312 C 3.917969 -11.570312 3.835938 -11.410156 3.835938 -11.273438 C 3.835938 -11.210938 4.074219 -11.449219 4.074219 -11.53125 Z M 12.085938 -8.25 C 12.066406 -8.109375 11.988281 -7.753906 11.929688 -7.453125 C 11.867188 -7.195312 11.828125 -6.9375 11.828125 -6.917969 C 11.828125 -6.839844 11.949219 -7.019531 11.96875 -7.15625 C 11.988281 -7.296875 12.066406 -7.652344 12.148438 -8.03125 C 12.246094 -8.46875 12.246094 -8.546875 12.1875 -8.546875 C 12.167969 -8.546875 12.105469 -8.410156 12.085938 -8.25 Z M 0.160156 -0.199219 C 0.238281 -0.199219 0.296875 -0.160156 0.296875 -0.121094 C 0.339844 0.0195312 0.992188 0.339844 1.332031 0.398438 C 1.710938 0.457031 1.789062 0.457031 1.789062 0.378906 C 1.789062 0.316406 1.867188 0.296875 2.007812 0.296875 C 2.105469 0.296875 2.304688 0.257812 2.425781 0.238281 C 2.605469 0.179688 2.625 0.160156 2.664062 -0.121094 C 2.683594 -0.257812 2.742188 -0.476562 2.78125 -0.578125 C 2.824219 -0.675781 2.960938 -1.152344 3.082031 -1.609375 C 3.199219 -2.066406 3.339844 -2.503906 3.359375 -2.566406 C 3.378906 -2.625 3.460938 -2.84375 3.539062 -3.082031 C 3.617188 -3.300781 3.699219 -3.519531 3.71875 -3.578125 C 3.835938 -3.835938 4.074219 -4.574219 4.074219 -4.652344 C 4.074219 -4.691406 4.113281 -4.8125 4.15625 -4.890625 C 4.214844 -4.988281 4.253906 -5.089844 4.253906 -5.148438 C 4.253906 -5.207031 4.292969 -5.289062 4.332031 -5.367188 C 4.375 -5.425781 4.511719 -5.726562 4.613281 -6.023438 C 4.710938 -6.320312 4.832031 -6.621094 4.871094 -6.679688 C 5.007812 -6.976562 5.527344 -8.171875 5.644531 -8.507812 C 5.746094 -8.765625 5.765625 -8.886719 5.707031 -8.90625 C 5.6875 -8.925781 5.664062 -8.964844 5.6875 -9.003906 C 5.707031 -9.066406 5.726562 -9.066406 5.746094 -9.027344 C 5.804688 -8.964844 5.90625 -9.085938 6.042969 -9.363281 C 6.101562 -9.503906 6.101562 -9.523438 6.003906 -9.523438 C 5.925781 -9.523438 5.925781 -9.523438 6.023438 -9.5625 C 6.121094 -9.601562 6.242188 -9.800781 6.441406 -10.179688 C 6.71875 -10.773438 6.757812 -10.894531 6.640625 -10.855469 C 6.601562 -10.855469 6.460938 -10.597656 6.300781 -10.277344 C 6.144531 -9.941406 6.023438 -9.742188 6.003906 -9.78125 C 5.964844 -9.839844 5.945312 -9.820312 5.90625 -9.742188 C 5.882812 -9.679688 5.804688 -9.5625 5.746094 -9.441406 C 5.664062 -9.363281 5.507812 -9.027344 5.40625 -8.726562 C 5.308594 -8.429688 5.167969 -8.109375 5.109375 -8.03125 C 5.050781 -7.933594 4.910156 -7.671875 4.792969 -7.476562 C 4.472656 -6.957031 4.492188 -7.097656 4.8125 -7.695312 C 4.96875 -7.972656 5.148438 -8.390625 5.25 -8.648438 C 5.347656 -8.90625 5.46875 -9.183594 5.527344 -9.285156 C 5.585938 -9.382812 5.625 -9.503906 5.625 -9.542969 C 5.625 -9.582031 5.765625 -9.820312 5.90625 -10.078125 C 6.0625 -10.335938 6.183594 -10.597656 6.183594 -10.636719 C 6.183594 -10.695312 6.222656 -10.816406 6.300781 -10.914062 C 6.363281 -10.992188 6.5 -11.292969 6.621094 -11.53125 C 6.957031 -12.265625 8.03125 -14.234375 8.648438 -15.226562 C 10.875 -18.804688 13.855469 -22.761719 15.566406 -24.351562 C 16.441406 -25.167969 16.679688 -25.265625 15.984375 -24.570312 C 15.664062 -24.234375 15.328125 -23.894531 15.246094 -23.816406 C 15.167969 -23.738281 14.789062 -23.300781 14.414062 -22.84375 C 14.015625 -22.363281 13.675781 -21.96875 13.65625 -21.925781 C 13.617188 -21.90625 13.417969 -21.667969 13.21875 -21.410156 C 13.019531 -21.132812 12.78125 -20.835938 12.664062 -20.714844 C 12.5625 -20.59375 12.484375 -20.476562 12.484375 -20.4375 C 12.484375 -20.375 11.230469 -18.6875 11.011719 -18.449219 C 10.914062 -18.347656 10.792969 -18.171875 10.734375 -18.050781 C 10.675781 -17.933594 10.574219 -17.753906 10.476562 -17.652344 C 10.316406 -17.472656 10.117188 -17.15625 9.800781 -16.601562 C 9.679688 -16.382812 9.523438 -16.140625 9.441406 -16.0625 C 9.246094 -15.882812 8.90625 -15.347656 8.785156 -15.050781 C 8.726562 -14.910156 8.609375 -14.710938 8.546875 -14.613281 C 8.410156 -14.414062 8.289062 -13.894531 8.390625 -13.894531 C 8.410156 -13.894531 8.566406 -14.132812 8.726562 -14.414062 C 8.867188 -14.710938 9.164062 -15.167969 9.34375 -15.425781 C 9.542969 -15.707031 9.898438 -16.261719 10.160156 -16.660156 C 11.90625 -19.421875 14.511719 -22.761719 16.101562 -24.273438 C 16.480469 -24.632812 16.558594 -24.671875 16.558594 -24.570312 C 16.558594 -24.394531 16.320312 -23.320312 16.222656 -23.0625 C 16.164062 -22.941406 16.140625 -22.78125 16.164062 -22.703125 C 16.203125 -22.464844 15.863281 -21.273438 15.328125 -19.722656 C 14.789062 -18.171875 14.09375 -15.921875 13.957031 -15.386719 C 13.9375 -15.246094 13.875 -15.007812 13.816406 -14.890625 C 13.777344 -14.75 13.757812 -14.632812 13.777344 -14.59375 C 13.796875 -14.570312 13.777344 -14.511719 13.71875 -14.472656 C 13.675781 -14.433594 13.597656 -14.175781 13.578125 -13.894531 C 13.519531 -13.617188 13.457031 -13.28125 13.398438 -13.140625 C 13.300781 -12.824219 13.238281 -12.503906 13.238281 -12.246094 C 13.21875 -12.125 13.179688 -11.949219 13.121094 -11.867188 C 13.082031 -11.769531 13.042969 -11.667969 13.082031 -11.648438 C 13.140625 -11.628906 13.082031 -11.292969 13.019531 -11.292969 C 13 -11.292969 12.980469 -11.191406 12.980469 -11.054688 C 12.980469 -10.914062 12.941406 -10.773438 12.921875 -10.773438 C 12.882812 -10.753906 12.863281 -10.597656 12.863281 -10.4375 C 12.84375 -10.238281 12.800781 -10.117188 12.742188 -10.078125 C 12.664062 -10.019531 12.664062 -10 12.703125 -10 C 12.761719 -10 12.78125 -9.941406 12.761719 -9.742188 C 12.683594 -9.324219 12.644531 -9.222656 12.585938 -9.304688 C 12.5625 -9.363281 12.542969 -9.285156 12.542969 -9.085938 C 12.542969 -8.546875 12.265625 -7.195312 12.167969 -7.195312 C 12.125 -7.195312 12.125 -7.097656 12.148438 -6.957031 C 12.1875 -6.800781 12.167969 -6.757812 12.125 -6.777344 C 12.066406 -6.820312 12.027344 -6.601562 12.046875 -6.320312 C 12.046875 -6.164062 11.808594 -4.96875 11.730469 -4.730469 C 11.667969 -4.613281 11.628906 -4.472656 11.628906 -4.414062 C 11.628906 -4.273438 11.472656 -3.917969 11.429688 -3.957031 C 11.410156 -3.976562 11.429688 -4.214844 11.492188 -4.492188 C 11.589844 -5.089844 11.609375 -5.308594 11.53125 -5.269531 C 11.449219 -5.226562 11.273438 -4.273438 11.292969 -4.015625 C 11.3125 -3.855469 11.332031 -3.796875 11.429688 -3.777344 C 11.492188 -3.777344 11.628906 -3.679688 11.730469 -3.558594 C 11.828125 -3.4375 11.929688 -3.359375 11.949219 -3.378906 C 11.988281 -3.398438 11.988281 -3.4375 11.96875 -3.460938 C 11.90625 -3.539062 12.007812 -3.519531 12.125 -3.417969 C 12.1875 -3.359375 12.246094 -3.300781 12.246094 -3.261719 C 12.246094 -3.21875 12.324219 -3.179688 12.445312 -3.140625 C 12.5625 -3.101562 12.664062 -3.101562 12.664062 -3.140625 C 12.664062 -3.160156 12.703125 -3.160156 12.742188 -3.140625 C 12.921875 -3.082031 13.140625 -3.28125 13.179688 -3.558594 C 13.238281 -3.917969 13.417969 -4.414062 13.777344 -5.148438 C 14.09375 -5.84375 14.375 -6.539062 14.351562 -6.621094 C 14.332031 -6.640625 14.375 -6.679688 14.433594 -6.71875 C 14.511719 -6.777344 14.53125 -6.839844 14.492188 -6.9375 C 14.472656 -7.019531 14.492188 -7.078125 14.511719 -7.097656 C 14.550781 -7.117188 14.570312 -7.214844 14.570312 -7.296875 C 14.570312 -7.394531 14.59375 -7.414062 14.632812 -7.355469 C 14.691406 -7.277344 14.691406 -7.296875 14.730469 -7.375 C 14.75 -7.414062 14.75 -7.476562 14.730469 -7.496094 C 14.710938 -7.515625 14.730469 -7.554688 14.789062 -7.59375 C 14.832031 -7.613281 14.910156 -7.753906 14.96875 -7.914062 C 15.007812 -8.050781 15.148438 -8.347656 15.269531 -8.589844 C 15.386719 -8.808594 15.546875 -9.164062 15.644531 -9.382812 C 15.863281 -9.898438 16.820312 -11.628906 17.296875 -12.386719 C 17.515625 -12.722656 17.691406 -13 17.691406 -13.019531 C 17.691406 -13.042969 17.910156 -13.300781 18.148438 -13.617188 C 18.410156 -13.914062 18.609375 -14.195312 18.609375 -14.214844 C 18.609375 -14.234375 18.667969 -14.292969 18.746094 -14.351562 C 18.886719 -14.433594 18.90625 -14.433594 18.925781 -14.351562 C 18.964844 -14.234375 18.925781 -12.78125 18.886719 -12.722656 C 18.867188 -12.703125 18.804688 -12.285156 18.746094 -11.789062 C 18.707031 -11.292969 18.609375 -10.617188 18.566406 -10.257812 C 18.46875 -9.582031 18.507812 -9.402344 18.628906 -9.640625 C 18.707031 -9.742188 18.726562 -9.722656 18.726562 -9.382812 C 18.726562 -9.164062 18.726562 -8.667969 18.707031 -8.25 C 18.707031 -7.832031 18.6875 -7.375 18.6875 -7.257812 C 18.6875 -6.957031 18.628906 -6.957031 18.566406 -7.234375 C 18.527344 -7.476562 18.410156 -7.535156 18.410156 -7.335938 C 18.410156 -7.15625 18.585938 -6.800781 18.667969 -6.800781 C 18.6875 -6.800781 18.726562 -6.777344 18.726562 -6.71875 C 18.726562 -6.621094 19.363281 -6.023438 19.421875 -6.0625 C 19.441406 -6.082031 19.542969 -6.042969 19.640625 -5.964844 C 19.878906 -5.824219 20.277344 -5.664062 20.335938 -5.707031 C 20.375 -5.726562 20.417969 -5.707031 20.4375 -5.664062 C 20.515625 -5.546875 20.953125 -5.625 21.410156 -5.804688 C 21.648438 -5.90625 21.867188 -6.003906 21.90625 -6.003906 C 21.949219 -6.003906 21.96875 -6.023438 21.96875 -6.0625 C 21.96875 -6.121094 22.066406 -6.242188 22.207031 -6.320312 C 22.425781 -6.5 23.039062 -7.234375 23.039062 -7.355469 C 23.039062 -7.375 22.960938 -7.496094 22.882812 -7.59375 C 22.683594 -7.8125 22.601562 -7.8125 22.207031 -7.515625 C 21.789062 -7.195312 20.21875 -6.441406 20.097656 -6.5 C 20.078125 -6.519531 20.078125 -6.601562 20.078125 -6.679688 C 20.097656 -6.757812 20.097656 -6.800781 20.058594 -6.800781 C 20.039062 -6.800781 20.019531 -7.097656 20.039062 -7.453125 C 20.039062 -7.992188 20.039062 -8.109375 19.960938 -8.191406 C 19.839844 -8.289062 19.820312 -8.46875 19.917969 -8.507812 C 20.019531 -8.566406 20.097656 -8.925781 20.097656 -9.402344 C 20.117188 -9.640625 20.136719 -9.941406 20.160156 -10.039062 C 20.199219 -10.160156 20.179688 -10.277344 20.136719 -10.335938 C 20.078125 -10.417969 20.097656 -10.457031 20.160156 -10.476562 C 20.238281 -10.535156 20.277344 -10.953125 20.398438 -12.445312 C 20.515625 -14.113281 20.476562 -14.550781 20.160156 -15.027344 L 19.960938 -15.328125 L 19.660156 -15.289062 L 19.382812 -15.246094 L 19.421875 -15.40625 C 19.441406 -15.546875 19.441406 -15.566406 19.164062 -15.625 C 18.964844 -15.644531 18.847656 -15.664062 18.828125 -15.625 C 18.804688 -15.585938 18.785156 -15.585938 18.746094 -15.625 C 18.6875 -15.707031 18.289062 -15.507812 18.03125 -15.246094 C 17.335938 -14.570312 16.203125 -13.121094 16.203125 -12.921875 C 16.203125 -12.863281 16.164062 -12.800781 16.121094 -12.78125 C 15.984375 -12.742188 14.769531 -10.636719 14.769531 -10.476562 C 14.769531 -10.417969 14.710938 -10.359375 14.671875 -10.316406 C 14.613281 -10.296875 14.570312 -10.238281 14.570312 -10.21875 C 14.570312 -10.199219 14.453125 -9.960938 14.3125 -9.660156 C 14.15625 -9.382812 14.054688 -9.246094 14.074219 -9.34375 C 14.09375 -9.421875 14.074219 -9.523438 14.054688 -9.542969 C 14.015625 -9.5625 13.976562 -9.640625 13.976562 -9.722656 C 13.976562 -9.800781 14.015625 -9.839844 14.074219 -9.820312 C 14.214844 -9.800781 14.234375 -9.921875 14.691406 -11.867188 C 14.890625 -12.703125 15.070312 -13.417969 15.089844 -13.480469 C 15.109375 -13.519531 15.089844 -13.578125 15.070312 -13.597656 C 15.027344 -13.617188 14.988281 -13.699219 14.988281 -13.738281 C 14.988281 -13.796875 15.027344 -13.835938 15.050781 -13.816406 C 15.089844 -13.796875 15.148438 -13.835938 15.167969 -13.875 C 15.226562 -13.996094 15.683594 -15.527344 15.824219 -16.101562 C 15.863281 -16.300781 15.921875 -16.480469 15.945312 -16.519531 C 15.964844 -16.539062 15.984375 -16.640625 16.003906 -16.71875 C 16.003906 -16.839844 16.101562 -17.136719 16.621094 -18.804688 C 16.738281 -19.125 16.878906 -19.601562 16.957031 -19.859375 C 17.015625 -20.097656 17.15625 -20.59375 17.277344 -20.933594 C 17.832031 -22.863281 18.03125 -23.695312 18.03125 -24.332031 C 18.03125 -24.710938 18.011719 -24.789062 17.851562 -25.089844 C 17.671875 -25.40625 17.671875 -25.40625 17.414062 -25.40625 C 17.195312 -25.40625 17.15625 -25.40625 17.15625 -25.507812 C 17.15625 -25.683594 17.097656 -25.746094 16.796875 -25.804688 C 16.539062 -25.863281 16.5 -25.84375 16.140625 -25.703125 C 15.128906 -25.246094 13.300781 -23.21875 10.695312 -19.699219 C 9.503906 -18.050781 8.945312 -17.277344 8.6875 -16.839844 C 8.546875 -16.621094 8.371094 -16.300781 8.269531 -16.140625 C 8.171875 -15.984375 8.109375 -15.84375 8.152344 -15.84375 C 8.191406 -15.84375 8.210938 -15.824219 8.191406 -15.804688 C 8.171875 -15.765625 8.132812 -15.746094 8.109375 -15.765625 C 8.03125 -15.804688 7.890625 -15.546875 7.953125 -15.464844 C 7.972656 -15.445312 7.953125 -15.425781 7.914062 -15.425781 C 7.871094 -15.425781 7.832031 -15.40625 7.8125 -15.367188 C 7.792969 -15.328125 7.8125 -15.308594 7.851562 -15.328125 C 7.890625 -15.347656 7.871094 -15.269531 7.792969 -15.148438 C 7.714844 -15.007812 7.652344 -14.929688 7.59375 -14.96875 C 7.554688 -14.988281 7.554688 -14.96875 7.574219 -14.910156 C 7.59375 -14.871094 7.515625 -14.671875 7.394531 -14.472656 C 7.296875 -14.273438 7.195312 -14.074219 7.195312 -14.035156 C 7.195312 -13.996094 7.15625 -13.9375 7.117188 -13.875 C 6.878906 -13.699219 5.546875 -11.113281 5.308594 -10.4375 C 5.25 -10.277344 5.167969 -10.117188 5.148438 -10.078125 C 5.128906 -10.058594 5.089844 -10 5.089844 -9.941406 C 5.089844 -9.878906 5.050781 -9.820312 5.007812 -9.78125 C 4.929688 -9.703125 4.492188 -8.847656 4.492188 -8.746094 C 4.492188 -8.726562 4.433594 -8.566406 4.355469 -8.410156 C 3.835938 -7.433594 3.578125 -6.800781 3.636719 -6.738281 C 3.699219 -6.699219 3.738281 -6.757812 3.835938 -6.917969 C 3.894531 -7.058594 4.035156 -7.335938 4.15625 -7.574219 C 4.273438 -7.792969 4.394531 -8.070312 4.433594 -8.191406 C 4.492188 -8.308594 4.53125 -8.429688 4.550781 -8.46875 C 4.59375 -8.488281 4.851562 -9.046875 5.148438 -9.703125 C 5.46875 -10.359375 5.785156 -11.074219 5.882812 -11.273438 C 6.121094 -11.769531 7.554688 -14.292969 7.59375 -14.273438 C 7.613281 -14.253906 6.441406 -12.148438 6.363281 -12.027344 C 6.261719 -11.929688 5.785156 -10.933594 5.546875 -10.359375 C 5.40625 -10.019531 5.167969 -9.503906 5.007812 -9.183594 C 4.59375 -8.347656 4.15625 -7.375 3.957031 -6.878906 C 3.558594 -5.863281 3.417969 -5.546875 3.339844 -5.425781 C 3.300781 -5.367188 3.21875 -5.226562 3.179688 -5.109375 C 3.121094 -4.988281 3.082031 -4.910156 3.082031 -4.949219 C 3.042969 -5.007812 3.320312 -5.726562 3.578125 -6.363281 C 3.699219 -6.621094 3.699219 -6.699219 3.597656 -6.699219 C 3.519531 -6.699219 2.960938 -5.347656 2.902344 -5.070312 C 2.902344 -5.03125 2.882812 -4.949219 2.863281 -4.910156 C 2.761719 -4.710938 1.96875 -2.542969 1.949219 -2.484375 C 1.929688 -2.425781 1.867188 -2.285156 1.808594 -2.148438 C 1.730469 -2.007812 1.648438 -1.789062 1.609375 -1.667969 C 1.570312 -1.550781 1.511719 -1.453125 1.492188 -1.453125 C 1.453125 -1.453125 1.453125 -1.511719 1.492188 -1.570312 C 1.511719 -1.628906 1.570312 -1.949219 1.609375 -2.265625 C 1.648438 -2.566406 1.710938 -3 1.769531 -3.199219 C 1.808594 -3.417969 1.867188 -3.65625 1.867188 -3.71875 C 1.886719 -3.796875 1.96875 -3.996094 2.027344 -4.175781 C 2.148438 -4.433594 2.148438 -4.511719 2.085938 -4.550781 C 2.027344 -4.574219 2.027344 -4.59375 2.085938 -4.59375 C 2.128906 -4.59375 2.148438 -4.632812 2.148438 -4.691406 C 2.128906 -4.75 2.148438 -4.8125 2.1875 -4.871094 C 2.265625 -4.949219 2.523438 -5.804688 2.523438 -5.984375 C 2.523438 -6.042969 2.542969 -6.144531 2.566406 -6.203125 C 2.664062 -6.339844 2.804688 -6.859375 2.863281 -7.15625 C 2.882812 -7.296875 2.902344 -7.394531 2.941406 -7.394531 C 2.960938 -7.394531 3 -7.496094 3.023438 -7.59375 C 3.0625 -7.773438 3.539062 -9.125 3.875 -10.078125 C 3.976562 -10.359375 4.15625 -10.816406 4.253906 -11.113281 C 4.355469 -11.410156 4.492188 -11.75 4.550781 -11.867188 C 4.671875 -12.085938 4.710938 -12.226562 4.710938 -12.265625 C 4.710938 -12.285156 4.769531 -12.386719 4.8125 -12.484375 C 4.871094 -12.585938 4.910156 -12.683594 4.890625 -12.703125 C 4.851562 -12.761719 5.007812 -13.21875 5.070312 -13.21875 C 5.109375 -13.21875 5.167969 -13.339844 5.226562 -13.480469 C 5.269531 -13.597656 5.386719 -13.855469 5.46875 -14.015625 C 5.546875 -14.175781 5.707031 -14.53125 5.804688 -14.789062 C 6.144531 -15.625 6.222656 -15.765625 7.394531 -18.03125 C 8.191406 -19.582031 9.066406 -21.113281 9.402344 -21.570312 C 9.601562 -21.847656 9.878906 -22.226562 10.019531 -22.445312 C 10.140625 -22.664062 10.417969 -23 10.597656 -23.21875 C 11.074219 -23.796875 11.035156 -24.015625 10.398438 -24.332031 C 10.199219 -24.433594 10.019531 -24.492188 9.980469 -24.472656 C 9.980469 -24.453125 9.859375 -24.433594 9.722656 -24.453125 C 9.523438 -24.453125 9.460938 -24.433594 9.164062 -24.175781 C 8.746094 -23.796875 8.03125 -22.980469 8.03125 -22.863281 C 8.03125 -22.761719 7.832031 -22.386719 7.652344 -22.167969 C 7.59375 -22.085938 7.453125 -21.847656 7.335938 -21.648438 C 7.214844 -21.449219 6.996094 -21.09375 6.859375 -20.835938 C 6.71875 -20.59375 6.601562 -20.355469 6.621094 -20.316406 C 6.621094 -20.296875 6.699219 -20.355469 6.777344 -20.496094 C 6.839844 -20.617188 6.917969 -20.714844 6.917969 -20.714844 C 6.9375 -20.714844 6.800781 -20.457031 6.621094 -20.117188 C 6.242188 -19.460938 5.625 -18.289062 5.625 -18.25 C 5.625 -18.25 5.566406 -18.109375 5.488281 -17.933594 C 5.40625 -17.773438 5.328125 -17.632812 5.328125 -17.613281 C 5.328125 -17.59375 5.308594 -17.496094 5.25 -17.394531 C 4.3125 -15.488281 3.28125 -13.140625 2.824219 -11.90625 C 2.265625 -10.378906 1.730469 -8.886719 1.53125 -8.210938 C 1.273438 -7.414062 0.796875 -5.707031 0.714844 -5.347656 C 0.675781 -5.207031 0.617188 -4.949219 0.578125 -4.75 C 0.339844 -3.9375 0.0585938 -2.066406 0.0390625 -1.234375 L 0.0390625 -0.773438 L -0.0195312 -1.410156 C -0.0390625 -1.910156 -0.0390625 -2.1875 0.0195312 -2.523438 C 0.0976562 -2.941406 0.0976562 -3.082031 0.0195312 -3.023438 C -0.0585938 -2.941406 -0.179688 -1.929688 -0.179688 -1.351562 C -0.179688 -0.796875 -0.160156 -0.617188 -0.0585938 -0.4375 C 0.0195312 -0.277344 0.078125 -0.199219 0.160156 -0.199219 Z M 18.765625 -9.820312 C 18.746094 -9.78125 18.726562 -9.800781 18.726562 -9.859375 C 18.726562 -9.921875 18.746094 -9.960938 18.746094 -9.941406 C 18.785156 -9.921875 18.785156 -9.859375 18.765625 -9.820312 Z M 19.003906 -8.410156 C 19.066406 -8.609375 19.066406 -8.609375 19.066406 -8.289062 C 19.066406 -8.109375 19.046875 -7.832031 19.023438 -7.671875 L 18.984375 -7.375 L 18.964844 -7.792969 C 18.964844 -8.011719 18.984375 -8.289062 19.003906 -8.410156 Z M 13.65625 -12.882812 C 13.675781 -12.960938 13.699219 -13.140625 13.71875 -13.28125 C 13.738281 -13.4375 13.796875 -13.519531 13.835938 -13.519531 C 13.894531 -13.519531 13.894531 -13.578125 13.875 -13.699219 C 13.855469 -13.816406 13.875 -13.855469 13.894531 -13.796875 C 13.957031 -13.757812 13.976562 -13.777344 14.015625 -13.855469 C 14.214844 -14.234375 14.292969 -14.691406 14.132812 -14.632812 C 14.09375 -14.613281 14.113281 -14.632812 14.175781 -14.671875 C 14.234375 -14.710938 14.273438 -14.769531 14.273438 -14.8125 C 14.273438 -14.851562 14.292969 -14.890625 14.332031 -14.890625 C 14.453125 -14.96875 14.214844 -13.957031 14.09375 -13.816406 C 14.015625 -13.71875 13.855469 -13.199219 13.855469 -13 C 13.855469 -12.921875 13.816406 -12.78125 13.777344 -12.703125 C 13.675781 -12.5625 13.675781 -12.5625 13.71875 -12.761719 C 13.738281 -12.921875 13.738281 -12.941406 13.675781 -12.84375 C 13.617188 -12.742188 13.617188 -12.761719 13.65625 -12.882812 Z M 14.132812 -11.570312 C 14.113281 -11.511719 14.113281 -11.53125 14.113281 -11.589844 C 14.09375 -11.648438 14.113281 -11.6875 14.132812 -11.667969 C 14.15625 -11.648438 14.15625 -11.609375 14.132812 -11.570312 Z M 13.160156 -10.855469 C 13.179688 -11.09375 13.300781 -11.570312 13.457031 -12.167969 C 13.5 -12.324219 13.539062 -12.367188 13.578125 -12.324219 C 13.597656 -12.265625 13.617188 -12.285156 13.617188 -12.367188 C 13.617188 -12.425781 13.65625 -12.40625 13.699219 -12.265625 L 13.777344 -12.085938 L 13.855469 -12.246094 C 13.914062 -12.40625 13.914062 -12.40625 13.875 -12.1875 C 13.835938 -11.929688 13.617188 -11.472656 13.578125 -11.570312 C 13.539062 -11.667969 13.378906 -11.53125 13.378906 -11.390625 C 13.378906 -11.332031 13.320312 -11.113281 13.261719 -10.914062 L 13.140625 -10.574219 Z M 13.417969 -9.125 C 13.398438 -9.085938 13.378906 -9.085938 13.378906 -9.164062 C 13.378906 -9.222656 13.398438 -9.246094 13.417969 -9.222656 C 13.4375 -9.203125 13.4375 -9.164062 13.417969 -9.125 Z M 13.121094 -10.496094 C 13.140625 -10.476562 13.140625 -10.398438 13.121094 -10.378906 C 13.101562 -10.335938 13.082031 -10.359375 13.082031 -10.4375 C 13.082031 -10.515625 13.101562 -10.535156 13.121094 -10.496094 Z M 12.941406 -9.5625 C 12.960938 -9.542969 12.960938 -9.484375 12.941406 -9.441406 C 12.921875 -9.402344 12.902344 -9.421875 12.902344 -9.484375 C 12.902344 -9.542969 12.921875 -9.582031 12.941406 -9.5625 Z M 12.761719 -8.628906 C 12.78125 -8.609375 12.78125 -8.566406 12.761719 -8.527344 C 12.742188 -8.488281 12.722656 -8.507812 12.722656 -8.566406 C 12.722656 -8.628906 12.742188 -8.648438 12.761719 -8.628906 Z M 12.007812 -4.871094 C 11.988281 -4.910156 12.046875 -4.988281 12.085938 -5.050781 C 12.125 -5.109375 12.167969 -5.128906 12.167969 -5.109375 C 12.167969 -5.007812 12.007812 -4.769531 12.007812 -4.871094 Z M 12.78125 -7.375 C 12.722656 -7.257812 12.625 -7.039062 12.585938 -6.878906 C 12.542969 -6.71875 12.484375 -6.601562 12.464844 -6.601562 C 12.386719 -6.621094 12.265625 -5.964844 12.324219 -5.90625 C 12.386719 -5.84375 12.425781 -5.925781 12.445312 -6.164062 C 12.484375 -6.421875 12.542969 -6.5 12.542969 -6.28125 C 12.5625 -6.003906 12.523438 -5.863281 12.40625 -5.546875 C 12.265625 -5.207031 12.207031 -5.148438 12.265625 -5.40625 C 12.285156 -5.507812 12.265625 -5.546875 12.246094 -5.527344 C 12.207031 -5.527344 12.1875 -5.445312 12.1875 -5.40625 C 12.1875 -5.347656 12.148438 -5.289062 12.125 -5.269531 C 12.085938 -5.25 12.066406 -5.289062 12.085938 -5.386719 C 12.105469 -5.46875 12.226562 -6.121094 12.367188 -6.839844 C 12.503906 -7.554688 12.625 -8.210938 12.644531 -8.289062 L 12.683594 -8.46875 L 12.722656 -8.308594 C 12.761719 -8.03125 12.863281 -8.132812 12.882812 -8.488281 C 12.882812 -8.667969 12.921875 -8.847656 12.960938 -8.886719 C 12.980469 -8.925781 13.019531 -9.105469 13.042969 -9.285156 C 13.0625 -9.542969 13.101562 -9.660156 13.199219 -9.742188 C 13.261719 -9.800781 13.320312 -9.878906 13.320312 -9.898438 C 13.320312 -9.941406 13.339844 -9.960938 13.339844 -9.941406 C 13.359375 -9.941406 13.359375 -9.820312 13.320312 -9.703125 C 13.300781 -9.582031 13.179688 -9.066406 13.082031 -8.527344 C 12.980469 -7.953125 12.863281 -7.496094 12.78125 -7.375 Z M 13.300781 -8.527344 C 13.28125 -8.488281 13.261719 -8.507812 13.261719 -8.566406 C 13.261719 -8.628906 13.28125 -8.648438 13.300781 -8.628906 C 13.320312 -8.609375 13.320312 -8.566406 13.300781 -8.527344 Z M 13.082031 -7.234375 C 13.019531 -7.019531 13 -6.996094 12.941406 -7.058594 C 12.921875 -7.078125 13.101562 -7.773438 13.160156 -7.8125 C 13.21875 -7.871094 13.160156 -7.574219 13.082031 -7.234375 Z M 13.320312 -8.269531 L 13.199219 -8.132812 L 13.199219 -8.25 C 13.199219 -8.328125 13.261719 -8.410156 13.320312 -8.429688 C 13.378906 -8.46875 13.4375 -8.46875 13.4375 -8.429688 C 13.4375 -8.410156 13.378906 -8.328125 13.320312 -8.269531 Z M 13.957031 -10.773438 C 13.9375 -10.636719 13.894531 -10.457031 13.875 -10.359375 C 13.835938 -10.199219 13.816406 -10.039062 13.796875 -9.921875 C 13.796875 -9.878906 13.738281 -9.839844 13.675781 -9.820312 C 13.597656 -9.800781 13.558594 -9.761719 13.558594 -9.660156 L 13.578125 -9.542969 L 13.617188 -9.679688 C 13.675781 -9.800781 13.675781 -9.800781 13.65625 -9.640625 C 13.65625 -9.5625 13.617188 -9.503906 13.578125 -9.503906 C 13.558594 -9.503906 13.519531 -9.484375 13.480469 -9.441406 C 13.457031 -9.402344 13.457031 -9.460938 13.457031 -9.5625 C 13.480469 -9.679688 13.539062 -10.019531 13.597656 -10.316406 C 13.699219 -11.011719 13.875 -11.6875 13.894531 -11.550781 C 13.914062 -11.511719 13.875 -11.3125 13.835938 -11.113281 C 13.777344 -10.933594 13.738281 -10.734375 13.757812 -10.675781 C 13.777344 -10.574219 13.777344 -10.574219 13.816406 -10.675781 C 13.957031 -10.992188 13.976562 -10.992188 13.957031 -10.773438 Z M 15.089844 -9.878906 C 15.167969 -10 15.226562 -10.117188 15.207031 -10.117188 C 15.148438 -10.179688 15.40625 -10.636719 15.546875 -10.753906 C 15.605469 -10.835938 15.644531 -10.894531 15.644531 -10.914062 C 15.625 -10.933594 15.644531 -10.992188 15.683594 -11.074219 C 15.84375 -11.371094 16.023438 -11.75 16.023438 -11.808594 C 16.023438 -12.007812 17.136719 -13.636719 17.316406 -13.699219 C 17.355469 -13.71875 17.515625 -13.894531 17.671875 -14.09375 C 17.953125 -14.492188 18.6875 -15.1875 18.765625 -15.128906 C 18.785156 -15.109375 18.628906 -14.929688 18.429688 -14.75 C 18.011719 -14.375 17.195312 -13.378906 17.234375 -13.300781 C 17.253906 -13.261719 17.414062 -13.4375 17.59375 -13.699219 C 18.089844 -14.332031 18.90625 -15.089844 18.90625 -14.890625 C 18.90625 -14.871094 18.746094 -14.710938 18.566406 -14.53125 C 18.128906 -14.074219 17.15625 -12.742188 17.15625 -12.605469 C 17.15625 -12.5625 17.058594 -12.425781 16.957031 -12.285156 C 16.839844 -12.148438 16.640625 -11.808594 16.5 -11.550781 C 16.359375 -11.273438 16.203125 -11.035156 16.164062 -11.011719 C 16.0625 -10.972656 15.445312 -9.898438 15.464844 -9.800781 C 15.464844 -9.761719 15.445312 -9.742188 15.40625 -9.742188 C 15.386719 -9.742188 15.367188 -9.703125 15.367188 -9.660156 C 15.386719 -9.523438 15.367188 -9.460938 15.207031 -9.324219 C 15.128906 -9.246094 15.050781 -9.125 15.050781 -9.066406 C 15.050781 -9.003906 15.007812 -8.925781 14.96875 -8.867188 C 14.871094 -8.785156 14.871094 -8.808594 14.890625 -9.085938 L 14.929688 -9.382812 L 14.769531 -9.105469 C 14.710938 -8.964844 14.550781 -8.648438 14.433594 -8.429688 C 14.3125 -8.210938 14.214844 -8.050781 14.214844 -8.070312 C 14.214844 -8.152344 14.949219 -9.679688 15.089844 -9.878906 Z M 14.035156 -9.027344 C 14.074219 -9.027344 14.09375 -9.003906 14.09375 -8.984375 C 14.09375 -8.945312 14.074219 -8.90625 14.035156 -8.886719 C 14.015625 -8.867188 13.976562 -8.90625 13.976562 -8.945312 C 13.976562 -8.984375 14.015625 -9.027344 14.035156 -9.027344 Z M 13.976562 -11.132812 C 13.957031 -11.132812 13.9375 -11.171875 13.957031 -11.210938 C 13.976562 -11.273438 13.996094 -11.292969 14.015625 -11.292969 C 14.035156 -11.292969 14.035156 -11.273438 14.035156 -11.210938 C 14.035156 -11.171875 14.015625 -11.132812 13.976562 -11.132812 Z M 14.132812 -10.554688 C 14.074219 -10.554688 14.035156 -10.554688 14.054688 -10.574219 C 14.074219 -10.597656 14.132812 -10.597656 14.175781 -10.574219 C 14.214844 -10.554688 14.214844 -10.554688 14.132812 -10.554688 Z M 14.375 -13.398438 C 14.351562 -13.359375 14.351562 -13.378906 14.332031 -13.4375 C 14.332031 -13.5 14.351562 -13.519531 14.375 -13.5 C 14.394531 -13.5 14.394531 -13.4375 14.375 -13.398438 Z M 14.414062 -15.089844 C 14.375 -14.96875 14.351562 -14.96875 14.3125 -15.050781 C 14.253906 -15.1875 14.273438 -15.367188 14.332031 -15.347656 C 14.375 -15.328125 14.394531 -15.347656 14.414062 -15.367188 C 14.433594 -15.40625 14.453125 -15.40625 14.453125 -15.328125 C 14.453125 -15.269531 14.433594 -15.167969 14.414062 -15.089844 Z M 14.492188 -13.835938 C 14.472656 -13.796875 14.472656 -13.796875 14.472656 -13.875 C 14.453125 -13.9375 14.472656 -13.957031 14.492188 -13.9375 C 14.511719 -13.914062 14.511719 -13.875 14.492188 -13.835938 Z M 14.570312 -13.4375 C 14.550781 -13.378906 14.53125 -13.359375 14.53125 -13.417969 C 14.53125 -13.457031 14.550781 -13.539062 14.570312 -13.597656 C 14.613281 -13.675781 14.632812 -13.675781 14.632812 -13.636719 C 14.632812 -13.578125 14.613281 -13.5 14.570312 -13.4375 Z M 14.570312 -15.605469 C 14.53125 -15.585938 14.53125 -15.625 14.550781 -15.726562 C 14.613281 -15.921875 14.632812 -15.945312 14.632812 -15.785156 C 14.632812 -15.707031 14.613281 -15.625 14.570312 -15.605469 Z M 14.570312 -16.121094 C 14.53125 -16.0625 14.53125 -16.082031 14.550781 -16.203125 C 14.613281 -16.402344 14.632812 -16.441406 14.632812 -16.300781 C 14.632812 -16.242188 14.613281 -16.164062 14.570312 -16.121094 Z M 14.671875 -16.003906 C 14.652344 -15.964844 14.652344 -15.964844 14.652344 -16.042969 C 14.652344 -16.082031 14.652344 -16.121094 14.671875 -16.101562 C 14.691406 -16.082031 14.691406 -16.042969 14.671875 -16.003906 Z M 14.789062 -16.679688 C 14.75 -16.679688 14.730469 -16.71875 14.75 -16.820312 C 14.769531 -16.917969 14.789062 -16.917969 14.832031 -16.878906 C 14.851562 -16.839844 14.871094 -16.777344 14.871094 -16.738281 C 14.871094 -16.699219 14.851562 -16.679688 14.789062 -16.679688 Z M 15.269531 -17.890625 C 15.226562 -17.753906 15.050781 -17.671875 15.050781 -17.792969 C 15.050781 -17.910156 15.128906 -18.011719 15.1875 -17.992188 C 15.207031 -17.972656 15.246094 -17.992188 15.246094 -18.011719 C 15.246094 -18.050781 15.246094 -18.070312 15.269531 -18.050781 C 15.289062 -18.03125 15.289062 -17.972656 15.269531 -17.890625 Z M 13.796875 -22.722656 C 14.292969 -23.28125 14.394531 -23.378906 14.394531 -23.339844 C 14.394531 -23.320312 14.214844 -23.101562 13.976562 -22.820312 C 13.738281 -22.5625 13.539062 -22.34375 13.519531 -22.34375 C 13.5 -22.34375 13.636719 -22.503906 13.796875 -22.722656 Z M 12.722656 -21.390625 C 12.824219 -21.53125 12.921875 -21.648438 12.941406 -21.648438 C 12.941406 -21.648438 12.882812 -21.53125 12.78125 -21.390625 C 12.683594 -21.273438 12.585938 -21.152344 12.5625 -21.152344 C 12.542969 -21.152344 12.625 -21.273438 12.722656 -21.390625 Z M 11.949219 -20.65625 C 11.988281 -20.714844 12.046875 -20.753906 12.046875 -20.753906 C 12.066406 -20.734375 12.027344 -20.675781 11.96875 -20.617188 C 11.867188 -20.535156 11.867188 -20.535156 11.949219 -20.65625 Z M 11.769531 -20.4375 C 11.789062 -20.476562 11.847656 -20.515625 11.867188 -20.515625 C 11.886719 -20.515625 11.867188 -20.476562 11.828125 -20.4375 C 11.769531 -20.375 11.730469 -20.335938 11.710938 -20.335938 C 11.6875 -20.335938 11.730469 -20.375 11.769531 -20.4375 Z M 11.511719 -20.078125 C 11.609375 -20.160156 11.609375 -20.136719 11.511719 -20.039062 C 11.472656 -19.980469 11.429688 -19.917969 11.410156 -19.917969 C 11.410156 -19.898438 11.390625 -19.917969 11.390625 -19.941406 C 11.390625 -19.980469 11.449219 -20.039062 11.511719 -20.078125 Z M 11.828125 -20.21875 C 12.226562 -20.714844 12.148438 -20.535156 11.730469 -19.980469 C 11.511719 -19.679688 11.292969 -19.421875 11.230469 -19.363281 C 11.132812 -19.261719 11.53125 -19.839844 11.828125 -20.21875 Z M 10.914062 -19.34375 C 11.011719 -19.480469 11.113281 -19.582031 11.132812 -19.582031 C 11.152344 -19.582031 11.074219 -19.480469 10.972656 -19.34375 C 10.875 -19.203125 10.773438 -19.105469 10.753906 -19.105469 C 10.734375 -19.105469 10.816406 -19.203125 10.914062 -19.34375 Z M 9.503906 -17.335938 C 9.621094 -17.496094 9.679688 -17.515625 9.601562 -17.375 C 9.5625 -17.316406 9.503906 -17.253906 9.460938 -17.214844 C 9.441406 -17.214844 9.441406 -17.253906 9.503906 -17.335938 Z M 9.265625 -16.996094 C 9.382812 -17.175781 9.441406 -17.195312 9.363281 -17.035156 C 9.324219 -16.976562 9.265625 -16.917969 9.222656 -16.898438 C 9.203125 -16.878906 9.203125 -16.917969 9.265625 -16.996094 Z M 8.90625 -16.480469 C 9.105469 -16.796875 9.246094 -16.9375 9.066406 -16.640625 C 9.003906 -16.519531 8.90625 -16.359375 8.847656 -16.300781 C 8.785156 -16.242188 8.828125 -16.320312 8.90625 -16.480469 Z M 8.46875 -16.300781 C 8.488281 -16.320312 8.507812 -16.300781 8.488281 -16.261719 C 8.449219 -16.164062 8.410156 -16.140625 8.410156 -16.222656 C 8.410156 -16.261719 8.429688 -16.300781 8.46875 -16.300781 Z M 7.832031 -14.710938 C 7.953125 -14.929688 8.050781 -15.089844 8.070312 -15.089844 C 8.089844 -15.089844 8.011719 -14.929688 7.890625 -14.710938 C 7.773438 -14.511719 7.652344 -14.332031 7.652344 -14.332031 C 7.632812 -14.332031 7.714844 -14.511719 7.832031 -14.710938 Z M 6.777344 -12.34375 C 7.695312 -14.074219 7.8125 -14.292969 8.070312 -14.710938 C 8.210938 -14.910156 8.46875 -15.328125 8.648438 -15.644531 C 8.828125 -15.945312 9.066406 -16.320312 9.164062 -16.460938 C 9.800781 -17.394531 10.140625 -17.910156 10.238281 -18.070312 C 10.277344 -18.171875 10.398438 -18.328125 10.476562 -18.410156 C 10.554688 -18.488281 10.65625 -18.648438 10.714844 -18.746094 C 10.753906 -18.847656 10.875 -18.984375 10.953125 -19.046875 C 11.054688 -19.125 10.972656 -18.984375 10.753906 -18.667969 C 10.554688 -18.390625 10.257812 -17.953125 10.097656 -17.714844 C 9.941406 -17.453125 9.601562 -16.9375 9.324219 -16.539062 C 9.066406 -16.140625 8.589844 -15.367188 8.25 -14.832031 C 7.933594 -14.273438 7.316406 -13.160156 6.859375 -12.367188 C 6.421875 -11.550781 6.0625 -10.914062 6.0625 -10.933594 C 6.0625 -10.953125 6.382812 -11.589844 6.777344 -12.34375 Z M 6.003906 -10.816406 C 6.023438 -10.855469 6.0625 -10.875 6.0625 -10.835938 C 6.0625 -10.816406 6.023438 -10.753906 6.003906 -10.714844 C 5.964844 -10.65625 5.945312 -10.65625 5.945312 -10.675781 C 5.945312 -10.714844 5.964844 -10.773438 6.003906 -10.816406 Z M 7.117188 -21.074219 C 7.195312 -21.171875 7.195312 -21.171875 7.136719 -21.054688 C 7.039062 -20.875 7.019531 -20.855469 7.019531 -20.914062 C 7.019531 -20.953125 7.058594 -21.011719 7.117188 -21.074219 Z M 0.515625 -0.65625 C 0.496094 -0.597656 0.496094 -0.636719 0.496094 -0.734375 C 0.496094 -0.855469 0.496094 -0.894531 0.515625 -0.835938 C 0.535156 -0.796875 0.535156 -0.695312 0.515625 -0.65625 Z M 1.53125 -1.292969 C 1.550781 -1.253906 1.53125 -1.234375 1.492188 -1.234375 C 1.472656 -1.234375 1.429688 -1.253906 1.429688 -1.292969 C 1.429688 -1.3125 1.453125 -1.332031 1.453125 -1.332031 C 1.472656 -1.332031 1.511719 -1.3125 1.53125 -1.292969 Z M 1.429688 -3.082031 C 1.390625 -3 1.351562 -2.742188 1.351562 -2.523438 C 1.332031 -1.96875 1.191406 -1.054688 1.132812 -0.992188 C 1.09375 -0.953125 1.074219 -0.835938 1.074219 -0.714844 C 1.054688 -0.296875 0.972656 -0.257812 0.933594 -0.65625 C 0.855469 -1.234375 0.855469 -1.589844 0.972656 -2.226562 C 1.015625 -2.542969 1.054688 -2.84375 1.035156 -2.882812 C 1.015625 -2.921875 1.054688 -2.980469 1.132812 -3.023438 C 1.191406 -3.042969 1.292969 -3.160156 1.351562 -3.28125 C 1.453125 -3.460938 1.472656 -3.460938 1.492188 -3.359375 C 1.492188 -3.28125 1.472656 -3.160156 1.429688 -3.082031 Z M 5.84375 -16.0625 C 5.785156 -16.023438 5.765625 -16.023438 5.726562 -16.0625 C 5.6875 -16.121094 5.804688 -16.203125 5.863281 -16.164062 C 5.882812 -16.140625 5.863281 -16.082031 5.84375 -16.0625 Z M 5.882812 -16.421875 C 5.90625 -16.441406 5.945312 -16.421875 5.945312 -16.402344 C 5.945312 -16.359375 5.90625 -16.339844 5.882812 -16.339844 C 5.804688 -16.339844 5.804688 -16.382812 5.882812 -16.421875 Z M 5.945312 -15.84375 C 5.90625 -15.804688 5.882812 -15.785156 5.882812 -15.824219 C 5.882812 -15.84375 5.90625 -15.921875 5.945312 -15.964844 C 5.964844 -16.003906 6.003906 -16.023438 6.003906 -15.984375 C 6.003906 -15.964844 5.964844 -15.882812 5.945312 -15.84375 Z M 6.660156 -17.832031 C 6.71875 -17.910156 6.777344 -17.972656 6.777344 -17.953125 C 6.777344 -17.933594 6.71875 -17.832031 6.660156 -17.714844 C 6.601562 -17.59375 6.539062 -17.535156 6.539062 -17.574219 C 6.539062 -17.632812 6.601562 -17.734375 6.660156 -17.832031 Z M 6.421875 -18.746094 C 6.441406 -18.765625 6.460938 -18.746094 6.441406 -18.6875 C 6.402344 -18.609375 6.363281 -18.585938 6.363281 -18.667969 C 6.363281 -18.6875 6.382812 -18.726562 6.421875 -18.746094 Z M 6.203125 -18.410156 C 6.222656 -18.46875 6.261719 -18.488281 6.28125 -18.46875 C 6.300781 -18.46875 6.28125 -18.429688 6.242188 -18.390625 C 6.183594 -18.328125 6.183594 -18.328125 6.203125 -18.410156 Z M 6.242188 -16.9375 C 6.242188 -16.898438 6.203125 -16.878906 6.183594 -16.878906 C 6.101562 -16.878906 6.101562 -16.917969 6.183594 -16.957031 C 6.203125 -16.976562 6.242188 -16.976562 6.242188 -16.9375 Z M 6.164062 -18.25 C 6.183594 -18.25 6.164062 -18.171875 6.144531 -18.109375 C 6.101562 -18.050781 6.003906 -17.832031 5.90625 -17.652344 C 5.804688 -17.472656 5.707031 -17.316406 5.6875 -17.316406 C 5.664062 -17.316406 5.625 -17.316406 5.625 -17.335938 C 5.625 -17.414062 6.144531 -18.289062 6.164062 -18.25 Z M 5.25 -16.5 C 5.289062 -16.640625 5.46875 -16.839844 5.46875 -16.738281 C 5.46875 -16.71875 5.40625 -16.621094 5.328125 -16.519531 C 5.207031 -16.382812 5.207031 -16.382812 5.25 -16.5 Z M 5.386719 -14.988281 C 5.386719 -14.871094 5.308594 -14.789062 5.25 -14.851562 C 5.25 -14.890625 5.269531 -14.949219 5.308594 -15.007812 C 5.386719 -15.109375 5.386719 -15.109375 5.386719 -14.988281 Z M 4.710938 -15.308594 C 4.832031 -15.308594 4.8125 -15.167969 4.710938 -15.128906 C 4.632812 -15.109375 4.613281 -15.050781 4.632812 -14.96875 C 4.652344 -14.910156 4.652344 -14.832031 4.632812 -14.789062 C 4.550781 -14.691406 4.433594 -14.710938 4.433594 -14.8125 C 4.433594 -14.988281 4.613281 -15.308594 4.710938 -15.308594 Z M 4.292969 -14.472656 C 4.3125 -14.550781 4.355469 -14.613281 4.375 -14.613281 C 4.394531 -14.613281 4.414062 -14.550781 4.394531 -14.492188 C 4.355469 -14.332031 4.273438 -14.3125 4.292969 -14.472656 Z M 3.875 -13.5 C 3.894531 -13.5 3.894531 -13.4375 3.875 -13.398438 C 3.855469 -13.359375 3.835938 -13.378906 3.835938 -13.4375 C 3.835938 -13.5 3.855469 -13.519531 3.875 -13.5 Z M 3.359375 -12.921875 C 3.378906 -12.980469 3.417969 -12.980469 3.417969 -12.960938 C 3.417969 -12.921875 3.378906 -12.863281 3.359375 -12.824219 C 3.320312 -12.78125 3.300781 -12.761719 3.300781 -12.78125 C 3.300781 -12.824219 3.320312 -12.882812 3.359375 -12.921875 Z M 2.105469 -8.648438 C 2.046875 -8.667969 2.085938 -8.867188 2.265625 -9.382812 C 2.40625 -9.78125 2.523438 -10.140625 2.566406 -10.199219 C 2.585938 -10.257812 2.703125 -10.554688 2.78125 -10.875 C 2.941406 -11.410156 3.242188 -12.027344 3.242188 -11.828125 C 3.242188 -11.667969 3.320312 -11.730469 3.398438 -11.929688 C 3.5 -12.125 3.460938 -12.246094 3.359375 -12.105469 C 3.300781 -12.046875 3.300781 -12.046875 3.300781 -12.148438 C 3.300781 -12.285156 3.65625 -13.160156 3.757812 -13.261719 C 3.835938 -13.320312 3.835938 -13.320312 3.796875 -13.199219 C 3.738281 -13 3.875 -13.121094 3.976562 -13.378906 C 4.054688 -13.558594 4.074219 -13.578125 3.996094 -13.597656 C 3.855469 -13.65625 4.054688 -14.074219 4.292969 -14.234375 L 4.472656 -14.351562 L 4.292969 -14.175781 C 4.136719 -13.996094 4.09375 -13.894531 4.195312 -13.894531 C 4.214844 -13.894531 4.113281 -13.597656 3.976562 -13.21875 C 3.558594 -12.125 3.460938 -11.828125 3.5 -11.769531 C 3.519531 -11.6875 3.199219 -10.816406 3 -10.457031 C 2.84375 -10.140625 2.625 -9.5625 2.664062 -9.523438 C 2.703125 -9.460938 2.40625 -8.527344 2.246094 -8.210938 C 2.207031 -8.089844 2.148438 -8.011719 2.128906 -8.011719 C 2.046875 -8.011719 2.027344 -8.152344 2.085938 -8.347656 C 2.148438 -8.546875 2.148438 -8.609375 2.105469 -8.648438 Z M 1.96875 -9.222656 C 2.007812 -9.285156 2.027344 -9.304688 2.027344 -9.246094 C 2.027344 -9.203125 2.007812 -9.125 1.96875 -9.085938 C 1.910156 -8.984375 1.910156 -9.066406 1.96875 -9.222656 Z M 1.988281 -8.46875 C 2.046875 -8.488281 2.046875 -8.371094 1.988281 -8.25 C 1.988281 -8.191406 1.949219 -8.171875 1.910156 -8.171875 C 1.847656 -8.171875 1.910156 -8.429688 1.988281 -8.46875 Z M 1.589844 -8.03125 C 1.609375 -8.03125 1.609375 -7.972656 1.589844 -7.933594 C 1.570312 -7.890625 1.550781 -7.914062 1.550781 -7.972656 C 1.550781 -8.03125 1.570312 -8.050781 1.589844 -8.03125 Z M 1.53125 -7.8125 C 1.550781 -7.8125 1.550781 -7.753906 1.53125 -7.714844 C 1.511719 -7.671875 1.492188 -7.695312 1.492188 -7.753906 C 1.492188 -7.8125 1.511719 -7.832031 1.53125 -7.8125 Z M 1.113281 -6.421875 C 1.132812 -6.402344 1.132812 -6.339844 1.113281 -6.320312 C 1.09375 -6.261719 1.074219 -6.28125 1.074219 -6.339844 C 1.074219 -6.402344 1.09375 -6.441406 1.113281 -6.421875 Z M 0.4375 -1.75 C 0.457031 -2.78125 0.554688 -3.378906 0.714844 -3.417969 C 0.796875 -3.4375 0.835938 -3.480469 0.835938 -3.519531 C 0.835938 -3.636719 0.734375 -3.636719 0.695312 -3.539062 C 0.636719 -3.398438 0.675781 -3.71875 0.773438 -4.214844 C 1.035156 -5.46875 1.667969 -7.734375 1.769531 -7.832031 C 1.789062 -7.851562 1.789062 -7.773438 1.769531 -7.671875 C 1.730469 -7.515625 1.730469 -7.496094 1.808594 -7.554688 C 1.867188 -7.59375 1.929688 -7.714844 1.949219 -7.8125 C 1.988281 -7.933594 2.007812 -7.992188 2.046875 -7.953125 C 2.085938 -7.914062 2.066406 -7.8125 2.027344 -7.671875 C 1.886719 -7.296875 1.847656 -7.136719 1.910156 -7.136719 C 1.949219 -7.136719 1.949219 -7.058594 1.910156 -6.957031 C 1.867188 -6.859375 1.789062 -6.601562 1.710938 -6.382812 C 1.628906 -6.164062 1.492188 -5.785156 1.410156 -5.585938 C 1.234375 -5.148438 1.113281 -4.214844 1.234375 -4.214844 C 1.332031 -4.214844 1.453125 -4.492188 1.453125 -4.671875 C 1.429688 -4.75 1.492188 -4.929688 1.550781 -5.03125 C 1.609375 -5.148438 1.628906 -5.25 1.609375 -5.289062 C 1.570312 -5.308594 1.570312 -5.40625 1.589844 -5.488281 C 1.628906 -5.625 1.648438 -5.625 1.691406 -5.527344 C 1.730469 -5.445312 1.730469 -5.46875 1.710938 -5.585938 C 1.667969 -5.746094 1.828125 -6.421875 1.949219 -6.539062 C 1.988281 -6.582031 2.027344 -6.640625 1.988281 -6.660156 C 1.96875 -6.679688 1.988281 -6.699219 2.027344 -6.699219 C 2.066406 -6.699219 2.085938 -6.738281 2.085938 -6.800781 C 2.085938 -6.859375 2.148438 -6.9375 2.207031 -6.996094 C 2.347656 -7.136719 2.484375 -7.832031 2.40625 -7.890625 C 2.347656 -7.914062 2.347656 -7.992188 2.425781 -8.132812 C 2.464844 -8.25 2.523438 -8.449219 2.542969 -8.566406 C 2.566406 -8.6875 2.644531 -8.925781 2.703125 -9.085938 C 2.742188 -9.246094 2.921875 -9.703125 3.0625 -10.117188 C 3.199219 -10.515625 3.320312 -10.855469 3.339844 -10.855469 C 3.339844 -10.875 3.417969 -10.816406 3.519531 -10.734375 C 3.617188 -10.65625 3.65625 -10.597656 3.617188 -10.597656 C 3.558594 -10.597656 3.480469 -10.378906 3.378906 -9.980469 C 3.339844 -9.859375 3.339844 -9.859375 3.4375 -9.980469 C 3.5 -10.039062 3.539062 -10.117188 3.539062 -10.160156 C 3.539062 -10.21875 3.597656 -10.359375 3.65625 -10.476562 C 3.816406 -10.773438 3.894531 -11.210938 3.777344 -11.191406 C 3.738281 -11.171875 3.679688 -11.230469 3.65625 -11.332031 C 3.597656 -11.492188 3.617188 -11.53125 3.757812 -11.867188 C 3.777344 -11.929688 3.796875 -12.007812 3.796875 -12.027344 C 3.796875 -12.046875 3.855469 -12.085938 3.9375 -12.148438 C 3.996094 -12.1875 4.015625 -12.207031 3.957031 -12.1875 C 3.894531 -12.167969 3.894531 -12.1875 3.917969 -12.324219 C 3.957031 -12.523438 4.136719 -12.742188 4.136719 -12.605469 C 4.136719 -12.585938 4.15625 -12.542969 4.195312 -12.542969 C 4.234375 -12.542969 4.253906 -12.585938 4.253906 -12.625 C 4.253906 -12.683594 4.234375 -12.703125 4.195312 -12.703125 C 4.15625 -12.703125 4.136719 -12.742188 4.136719 -12.78125 C 4.136719 -12.84375 4.15625 -12.863281 4.195312 -12.84375 C 4.253906 -12.824219 4.253906 -12.84375 4.234375 -12.921875 C 4.214844 -12.980469 4.253906 -13.121094 4.332031 -13.28125 C 4.433594 -13.4375 4.492188 -13.5 4.492188 -13.457031 C 4.492188 -13.28125 4.59375 -13.359375 4.710938 -13.578125 C 4.8125 -13.835938 4.8125 -13.875 4.710938 -13.816406 C 4.550781 -13.777344 4.691406 -13.957031 4.871094 -14.035156 C 5.070312 -14.132812 5.070312 -14.132812 4.949219 -14.253906 C 4.871094 -14.3125 4.871094 -14.332031 4.949219 -14.472656 L 5.03125 -14.632812 L 5.03125 -14.394531 L 5.050781 -14.15625 L 5.148438 -14.351562 C 5.207031 -14.472656 5.328125 -14.691406 5.40625 -14.832031 C 5.46875 -14.988281 5.546875 -15.089844 5.546875 -15.070312 C 5.585938 -15.050781 5.488281 -14.832031 5.128906 -14.15625 C 4.988281 -13.875 4.851562 -13.597656 4.832031 -13.539062 C 4.8125 -13.480469 4.75 -13.417969 4.710938 -13.417969 C 4.671875 -13.417969 4.671875 -13.398438 4.710938 -13.359375 C 4.8125 -13.320312 4.730469 -12.84375 4.550781 -12.5625 L 4.433594 -12.367188 L 4.472656 -12.605469 C 4.492188 -12.78125 4.472656 -12.882812 4.414062 -12.960938 C 4.332031 -13.042969 4.3125 -13.0625 4.3125 -12.960938 C 4.3125 -12.921875 4.332031 -12.863281 4.375 -12.863281 C 4.453125 -12.863281 4.394531 -12.625 4.253906 -12.367188 C 4.113281 -12.085938 4.136719 -11.96875 4.292969 -12.148438 C 4.375 -12.246094 4.375 -12.246094 4.355469 -12.148438 C 4.332031 -12.085938 4.3125 -12.027344 4.3125 -12.007812 C 4.3125 -11.96875 4.273438 -11.949219 4.234375 -11.96875 C 4.195312 -11.96875 4.136719 -11.929688 4.09375 -11.828125 C 3.996094 -11.648438 4.054688 -11.550781 4.136719 -11.6875 C 4.253906 -11.808594 4.195312 -11.648438 3.578125 -9.980469 C 3.339844 -9.324219 3.160156 -8.726562 3.160156 -8.6875 C 3.160156 -8.628906 3.140625 -8.546875 3.101562 -8.507812 C 3.082031 -8.46875 2.960938 -8.191406 2.863281 -7.871094 C 2.722656 -7.515625 2.644531 -7.316406 2.585938 -7.316406 C 2.523438 -7.316406 2.484375 -7.296875 2.464844 -7.234375 C 2.445312 -7.195312 2.464844 -7.175781 2.523438 -7.195312 C 2.664062 -7.234375 2.664062 -7.195312 2.542969 -6.898438 C 2.503906 -6.777344 2.425781 -6.519531 2.367188 -6.339844 C 2.324219 -6.164062 2.1875 -5.726562 2.066406 -5.347656 C 1.808594 -4.550781 1.609375 -3.875 1.609375 -3.71875 C 1.609375 -3.636719 1.3125 -3.480469 1.234375 -3.539062 C 1.234375 -3.558594 1.234375 -3.679688 1.234375 -3.835938 C 1.273438 -4.035156 1.253906 -4.09375 1.171875 -4.09375 C 1.054688 -4.09375 0.894531 -3.558594 0.875 -3.082031 C 0.855469 -2.84375 0.816406 -2.585938 0.753906 -2.503906 C 0.714844 -2.40625 0.636719 -2.226562 0.597656 -2.066406 C 0.554688 -1.929688 0.496094 -1.609375 0.476562 -1.371094 C 0.4375 -1.035156 0.4375 -1.113281 0.4375 -1.75 Z M 0.4375 -1.75 "/></g></g></g><g fill="#ffffff" fill-opacity="1"><g transform="translate(34.511784, 25.939599)"><g><path d="M 4.453125 -15.070312 C 4.035156 -14.472656 2.960938 -12.761719 2.960938 -12.683594 C 2.960938 -12.664062 3 -12.644531 3.042969 -12.644531 C 3.0625 -12.644531 3.300781 -12.980469 3.539062 -13.398438 C 4.433594 -14.949219 6.023438 -17.058594 7.277344 -18.367188 C 7.433594 -18.527344 7.535156 -18.667969 7.496094 -18.6875 C 7.355469 -18.785156 5.527344 -16.640625 4.453125 -15.070312 Z M 11.191406 -24.113281 C 11.210938 -24.09375 11.390625 -24.214844 11.628906 -24.394531 L 12.027344 -24.691406 L 11.789062 -24.433594 C 11.667969 -24.292969 11.53125 -24.195312 11.511719 -24.195312 C 11.472656 -24.195312 11.429688 -24.152344 11.429688 -24.09375 C 11.429688 -24.054688 11.390625 -23.996094 11.371094 -24.015625 C 11.292969 -24.015625 10.335938 -23.238281 10.335938 -23.160156 C 10.335938 -23.121094 10.457031 -23.21875 10.636719 -23.339844 C 10.933594 -23.578125 11.011719 -23.636719 11.011719 -23.539062 C 11.011719 -23.539062 10.535156 -23.121094 9.980469 -22.644531 C 9.402344 -22.167969 8.527344 -21.390625 8.011719 -20.914062 C 7.496094 -20.4375 7.039062 -20.058594 6.996094 -20.078125 C 6.957031 -20.078125 6.878906 -20.039062 6.839844 -19.980469 C 6.777344 -19.878906 6.777344 -19.839844 6.859375 -19.839844 C 6.957031 -19.839844 7.058594 -19.722656 6.996094 -19.660156 C 6.976562 -19.640625 6.917969 -19.660156 6.859375 -19.699219 C 6.800781 -19.78125 6.757812 -19.761719 6.738281 -19.679688 C 6.699219 -19.640625 6.699219 -19.5625 6.71875 -19.523438 C 6.738281 -19.460938 6.71875 -19.460938 6.660156 -19.503906 C 6.558594 -19.542969 6.539062 -19.523438 6.558594 -19.460938 C 6.582031 -19.402344 6.558594 -19.363281 6.519531 -19.382812 C 6.421875 -19.421875 5.964844 -18.90625 6.023438 -18.804688 C 6.023438 -18.785156 5.964844 -18.667969 5.882812 -18.546875 C 4.96875 -17.414062 3.835938 -15.921875 3.636719 -15.625 C 3.160156 -14.910156 1.949219 -12.863281 1.570312 -12.148438 C 0.753906 -10.597656 0.277344 -9.382812 -0.0585938 -8.171875 L -0.179688 -7.734375 L -0.0976562 -8.230469 C -0.0390625 -8.746094 0.179688 -9.542969 0.417969 -10.117188 C 0.636719 -10.636719 1.648438 -12.742188 2.007812 -13.339844 C 2.324219 -13.914062 2.386719 -14.09375 2.265625 -14.09375 C 2.148438 -14.09375 0.734375 -11.351562 0.296875 -10.257812 C -0.238281 -8.945312 -0.476562 -7.453125 -0.238281 -7.097656 C -0.160156 -6.996094 -0.0976562 -6.820312 -0.0585938 -6.738281 C 0 -6.5 0.078125 -6.382812 0.4375 -6.121094 C 0.972656 -5.707031 1.710938 -5.585938 2.484375 -5.804688 C 2.761719 -5.863281 3.699219 -6.339844 4.136719 -6.640625 C 4.253906 -6.71875 4.253906 -6.738281 4.175781 -6.800781 C 4.074219 -6.859375 4.574219 -7.296875 5.746094 -8.152344 C 6.023438 -8.371094 6.28125 -8.589844 6.300781 -8.667969 C 6.339844 -8.746094 6.402344 -8.808594 6.441406 -8.808594 C 6.5 -8.808594 6.539062 -8.847656 6.539062 -8.867188 C 6.539062 -8.90625 6.699219 -9.085938 6.917969 -9.246094 C 7.117188 -9.421875 7.714844 -9.980469 8.25 -10.476562 C 8.785156 -10.992188 9.246094 -11.429688 9.304688 -11.449219 C 9.34375 -11.492188 9.5625 -11.710938 9.78125 -11.949219 C 10.378906 -12.5625 11.789062 -13.976562 12.585938 -14.75 C 12.863281 -15.007812 13.4375 -15.546875 13.855469 -15.964844 C 14.3125 -16.382812 14.691406 -16.738281 14.710938 -16.777344 C 14.730469 -16.796875 15.128906 -17.175781 15.566406 -17.613281 C 16.003906 -18.050781 16.519531 -18.566406 16.71875 -18.765625 C 16.898438 -18.964844 17.058594 -19.125 17.078125 -19.125 C 17.078125 -19.105469 17.058594 -18.964844 17.015625 -18.785156 C 16.957031 -18.628906 16.859375 -18.109375 16.777344 -17.691406 C 16.539062 -16.339844 15.664062 -13 15.269531 -11.90625 C 15.167969 -11.667969 15.089844 -11.410156 15.050781 -11.332031 C 14.988281 -11.152344 14.910156 -11.09375 13.976562 -10.65625 C 13.140625 -10.277344 12.207031 -9.742188 11.132812 -9.085938 C 10.792969 -8.886719 10.378906 -8.609375 10.179688 -8.488281 C 9.640625 -8.171875 8.945312 -7.632812 8.152344 -6.957031 C 6.183594 -5.289062 4.550781 -3.199219 3.796875 -1.410156 C 3.578125 -0.894531 3.539062 -0.714844 3.578125 -0.597656 C 3.597656 -0.496094 3.65625 -0.398438 3.699219 -0.378906 C 3.738281 -0.359375 3.757812 -0.277344 3.757812 -0.199219 C 3.757812 -0.140625 3.796875 0.0585938 3.875 0.21875 C 3.976562 0.476562 4.054688 0.554688 4.414062 0.734375 C 4.652344 0.855469 4.949219 0.992188 5.089844 1.015625 C 5.882812 1.210938 7.296875 0.675781 8.707031 -0.359375 C 9.679688 -1.074219 10.914062 -2.207031 11.429688 -2.902344 C 11.570312 -3.101562 11.730469 -3.28125 11.789062 -3.320312 C 11.867188 -3.359375 12.046875 -3.597656 12.207031 -3.855469 C 12.367188 -4.09375 12.523438 -4.292969 12.542969 -4.292969 C 12.605469 -4.292969 13.019531 -4.871094 13.019531 -4.949219 C 13.019531 -4.96875 13.101562 -5.070312 13.179688 -5.128906 C 13.359375 -5.289062 14.351562 -6.9375 14.851562 -7.933594 C 15.246094 -8.667969 15.644531 -9.601562 15.804688 -10.097656 L 15.902344 -10.4375 L 16.738281 -10.816406 C 17.195312 -11.035156 17.632812 -11.230469 17.753906 -11.273438 C 17.851562 -11.292969 18.109375 -11.429688 18.308594 -11.53125 C 18.488281 -11.628906 18.804688 -11.75 19.003906 -11.789062 C 19.242188 -11.828125 19.382812 -11.886719 19.402344 -11.96875 C 19.421875 -12.007812 19.402344 -12.066406 19.363281 -12.066406 C 19.324219 -12.066406 19.285156 -12.148438 19.285156 -12.246094 C 19.261719 -12.484375 19.046875 -12.605469 18.628906 -12.585938 C 18.449219 -12.585938 18.230469 -12.523438 18.109375 -12.464844 C 17.953125 -12.367188 17.078125 -12.027344 16.996094 -12.027344 C 16.976562 -12.027344 17.015625 -12.066406 17.097656 -12.125 C 17.214844 -12.207031 17.214844 -12.207031 17.058594 -12.167969 C 16.976562 -12.167969 16.820312 -12.105469 16.71875 -12.066406 C 16.621094 -12.027344 16.519531 -11.988281 16.5 -11.988281 C 16.480469 -11.988281 16.539062 -12.226562 16.621094 -12.503906 C 16.898438 -13.417969 17.613281 -16.0625 17.714844 -16.519531 C 17.933594 -17.535156 18.210938 -18.585938 18.566406 -19.742188 C 18.804688 -20.535156 18.785156 -20.476562 18.804688 -20.855469 C 18.804688 -21.074219 18.785156 -21.132812 18.707031 -21.113281 C 18.507812 -21.054688 18.429688 -21.152344 18.46875 -21.371094 C 18.527344 -21.609375 18.546875 -21.589844 18.03125 -21.648438 C 17.832031 -21.667969 17.792969 -21.667969 17.792969 -21.589844 C 17.8125 -21.488281 17.355469 -20.953125 17.136719 -20.773438 C 17.117188 -20.773438 16.898438 -20.535156 16.660156 -20.277344 C 16.402344 -20.019531 16.003906 -19.601562 15.785156 -19.382812 C 15.070312 -18.6875 14.871094 -18.449219 14.851562 -18.269531 C 14.8125 -18.03125 14.8125 -18.03125 14.75 -18.128906 C 14.691406 -18.210938 14.613281 -18.148438 14.273438 -17.851562 C 13.636719 -17.253906 13.21875 -16.820312 13.21875 -16.757812 C 13.199219 -16.679688 12.503906 -16.003906 11.789062 -15.386719 C 11.492188 -15.128906 11.253906 -14.890625 11.253906 -14.871094 C 11.253906 -14.832031 11.152344 -14.75 11.054688 -14.691406 C 10.835938 -14.53125 10.160156 -13.894531 9.820312 -13.519531 C 9.703125 -13.398438 9.285156 -13 8.867188 -12.644531 C 8.46875 -12.265625 7.851562 -11.710938 7.515625 -11.390625 C 6.582031 -10.496094 4.273438 -8.566406 4.175781 -8.566406 C 4.074219 -8.589844 3.957031 -8.507812 2.921875 -7.832031 C 2.246094 -7.394531 1.234375 -6.917969 0.855469 -6.898438 C 0.65625 -6.898438 0.636719 -6.898438 0.617188 -7.078125 C 0.535156 -7.535156 0.953125 -9.003906 1.390625 -9.859375 C 1.53125 -10.140625 1.628906 -10.398438 1.628906 -10.457031 C 1.609375 -10.535156 1.628906 -10.574219 1.691406 -10.574219 C 1.730469 -10.574219 1.847656 -10.753906 1.929688 -10.992188 C 2.105469 -11.390625 2.226562 -11.609375 3.261719 -13.398438 C 3.558594 -13.914062 3.796875 -14.351562 3.796875 -14.375 C 3.796875 -14.414062 3.816406 -14.453125 3.855469 -14.433594 C 3.894531 -14.433594 4.015625 -14.570312 4.113281 -14.75 C 4.910156 -16.0625 7.394531 -18.945312 8.945312 -20.355469 C 9.222656 -20.59375 9.460938 -20.8125 9.460938 -20.835938 C 9.460938 -20.953125 12.324219 -23.28125 12.921875 -23.636719 C 14.253906 -24.472656 14.710938 -24.710938 15.507812 -24.890625 C 16.164062 -25.027344 16.164062 -25.027344 16.140625 -24.652344 C 16.082031 -23.738281 14.96875 -21.589844 13.976562 -20.4375 C 13.65625 -20.078125 13.398438 -19.742188 13.417969 -19.679688 C 13.417969 -19.640625 13.480469 -19.582031 13.558594 -19.5625 C 13.617188 -19.523438 13.675781 -19.460938 13.675781 -19.382812 C 13.65625 -19.285156 13.757812 -19.203125 14.035156 -19.046875 L 14.394531 -18.847656 L 14.710938 -19.066406 C 14.871094 -19.183594 15.089844 -19.304688 15.1875 -19.304688 C 15.289062 -19.324219 15.40625 -19.402344 15.445312 -19.460938 C 15.488281 -19.523438 15.585938 -19.621094 15.644531 -19.679688 C 15.945312 -19.960938 16.996094 -21.949219 17.277344 -22.78125 C 17.414062 -23.160156 17.433594 -23.378906 17.433594 -23.777344 C 17.433594 -24.589844 17.375 -24.75 16.859375 -25.308594 C 16.300781 -25.902344 16.023438 -26.0625 15.464844 -26.101562 C 15.007812 -26.121094 14.394531 -26.0625 14.375 -25.984375 C 14.375 -25.902344 13.914062 -25.746094 13.675781 -25.746094 C 13.457031 -25.746094 13.042969 -25.507812 12.246094 -24.949219 C 11.550781 -24.472656 11.152344 -24.152344 11.191406 -24.113281 Z M 8.765625 -7.195312 C 9.304688 -7.671875 10.4375 -8.46875 10.476562 -8.429688 C 10.496094 -8.410156 10.296875 -8.269531 10.058594 -8.089844 C 9.800781 -7.933594 9.285156 -7.554688 8.90625 -7.257812 L 8.210938 -6.71875 Z M 7.652344 -6.261719 C 7.734375 -6.320312 7.792969 -6.382812 7.8125 -6.382812 C 7.832031 -6.382812 7.792969 -6.320312 7.714844 -6.261719 C 7.652344 -6.183594 7.574219 -6.121094 7.554688 -6.144531 C 7.554688 -6.144531 7.59375 -6.203125 7.652344 -6.261719 Z M 5.804688 0.597656 C 5.664062 0.675781 5.226562 0.714844 5.308594 0.65625 C 5.347656 0.617188 5.507812 0.597656 5.644531 0.578125 C 5.824219 0.554688 5.863281 0.578125 5.804688 0.597656 Z M 8.191406 -1.210938 C 8.070312 -1.113281 7.953125 -1.035156 7.914062 -1.035156 C 7.890625 -1.035156 7.953125 -1.113281 8.050781 -1.210938 C 8.171875 -1.3125 8.289062 -1.390625 8.328125 -1.390625 C 8.347656 -1.371094 8.308594 -1.3125 8.191406 -1.210938 Z M 8.667969 -0.773438 C 8.609375 -0.714844 8.488281 -0.636719 8.410156 -0.597656 C 8.289062 -0.535156 8.289062 -0.554688 8.371094 -0.65625 C 8.429688 -0.695312 8.546875 -0.773438 8.628906 -0.816406 C 8.746094 -0.855469 8.746094 -0.855469 8.667969 -0.773438 Z M 9.582031 -1.3125 C 9.285156 -1.074219 9.003906 -0.855469 8.945312 -0.816406 C 8.808594 -0.753906 8.828125 -0.914062 8.964844 -1.054688 C 9.066406 -1.171875 9.066406 -1.171875 9.027344 -1.054688 C 8.984375 -0.953125 8.984375 -0.933594 9.085938 -1.015625 C 9.144531 -1.054688 9.222656 -1.171875 9.246094 -1.253906 C 9.304688 -1.429688 9.441406 -1.53125 9.5625 -1.453125 C 9.582031 -1.429688 9.621094 -1.453125 9.601562 -1.472656 C 9.582031 -1.589844 9.941406 -2.046875 10.078125 -2.105469 C 10.179688 -2.128906 10.316406 -2.226562 10.398438 -2.324219 C 10.476562 -2.445312 10.617188 -2.542969 10.714844 -2.566406 C 10.792969 -2.605469 10.894531 -2.683594 10.914062 -2.78125 C 10.953125 -2.863281 10.992188 -2.941406 11.035156 -2.921875 C 11.074219 -2.921875 11.09375 -2.960938 11.09375 -3.023438 C 11.09375 -3.0625 11.132812 -3.121094 11.171875 -3.101562 C 11.253906 -3.101562 11.609375 -3.460938 11.628906 -3.558594 C 11.628906 -3.71875 11.828125 -3.9375 11.988281 -3.996094 C 12.066406 -4.035156 12.148438 -4.113281 12.148438 -4.15625 C 12.148438 -4.214844 12.1875 -4.253906 12.226562 -4.253906 C 12.464844 -4.234375 10.535156 -2.085938 9.582031 -1.3125 Z M 10.199219 -2.78125 C 10.21875 -2.78125 10.199219 -2.742188 10.179688 -2.703125 C 10.160156 -2.644531 10.097656 -2.605469 10.078125 -2.605469 C 10.039062 -2.605469 10.039062 -2.644531 10.078125 -2.703125 C 10.140625 -2.742188 10.179688 -2.78125 10.199219 -2.78125 Z M 10.257812 -3.398438 C 10.359375 -3.5 10.398438 -3.5 10.398438 -3.417969 C 10.398438 -3.398438 10.335938 -3.359375 10.277344 -3.339844 C 10.199219 -3.300781 10.199219 -3.320312 10.257812 -3.398438 Z M 10 -3.023438 C 9.921875 -2.921875 9.742188 -2.761719 9.621094 -2.664062 L 9.402344 -2.484375 L 9.621094 -2.742188 C 9.722656 -2.863281 9.898438 -3.023438 10 -3.082031 L 10.140625 -3.199219 Z M 9.800781 -2.304688 C 9.761719 -2.246094 9.703125 -2.1875 9.660156 -2.1875 C 9.621094 -2.1875 9.640625 -2.246094 9.679688 -2.304688 C 9.742188 -2.386719 9.800781 -2.425781 9.820312 -2.425781 C 9.859375 -2.425781 9.839844 -2.367188 9.800781 -2.304688 Z M 11.332031 -4.671875 C 11.390625 -4.75 11.449219 -4.792969 11.472656 -4.769531 C 11.472656 -4.75 11.429688 -4.691406 11.371094 -4.632812 C 11.253906 -4.550781 11.253906 -4.550781 11.332031 -4.671875 Z M 11.808594 -4.949219 C 11.847656 -4.988281 11.90625 -5.03125 11.929688 -5.03125 C 11.949219 -5.03125 11.929688 -4.988281 11.867188 -4.949219 C 11.828125 -4.890625 11.769531 -4.851562 11.75 -4.851562 C 11.730469 -4.851562 11.769531 -4.890625 11.808594 -4.949219 Z M 12.761719 -5.984375 C 12.78125 -5.964844 12.722656 -5.824219 12.644531 -5.6875 C 12.503906 -5.46875 12.425781 -5.386719 12.425781 -5.488281 C 12.445312 -5.566406 12.742188 -6.003906 12.761719 -5.984375 Z M 12.742188 -6.28125 L 12.863281 -6.480469 C 12.960938 -6.679688 13.042969 -6.738281 13.042969 -6.640625 C 13.019531 -6.601562 12.960938 -6.519531 12.882812 -6.441406 Z M 12.523438 -5.863281 C 12.40625 -5.664062 12.285156 -5.527344 12.265625 -5.527344 C 12.226562 -5.527344 12.226562 -5.527344 12.484375 -5.945312 C 12.585938 -6.121094 12.703125 -6.261719 12.722656 -6.242188 C 12.722656 -6.222656 12.644531 -6.0625 12.523438 -5.863281 Z M 12.722656 -4.871094 C 12.386719 -4.355469 12.246094 -4.195312 12.34375 -4.433594 C 12.367188 -4.53125 12.425781 -4.59375 12.445312 -4.613281 C 12.484375 -4.613281 12.503906 -4.671875 12.523438 -4.710938 C 12.523438 -4.769531 12.5625 -4.8125 12.585938 -4.8125 C 12.625 -4.8125 12.664062 -4.832031 12.644531 -4.871094 C 12.625 -4.988281 12.882812 -5.347656 12.960938 -5.347656 C 13 -5.347656 12.902344 -5.128906 12.722656 -4.871094 Z M 13.4375 -5.925781 C 13.359375 -5.6875 13.339844 -5.664062 13.238281 -5.726562 C 13.179688 -5.785156 13.160156 -5.785156 13.179688 -5.746094 C 13.21875 -5.707031 13.21875 -5.625 13.179688 -5.566406 C 13.140625 -5.46875 13.019531 -5.425781 13.019531 -5.507812 C 13.042969 -5.585938 13.359375 -6.183594 13.417969 -6.222656 C 13.539062 -6.300781 13.558594 -6.222656 13.4375 -5.925781 Z M 13.5 -6.878906 C 13.480469 -6.898438 13.359375 -6.777344 13.28125 -6.621094 C 13.101562 -6.320312 12.863281 -6.0625 12.863281 -6.121094 C 12.882812 -6.144531 13.019531 -6.382812 13.199219 -6.679688 C 13.378906 -6.957031 13.519531 -7.195312 13.539062 -7.214844 C 13.539062 -7.234375 13.578125 -7.296875 13.65625 -7.375 L 13.757812 -7.496094 L 13.699219 -7.375 C 13.675781 -7.296875 13.636719 -7.195312 13.636719 -7.136719 C 13.636719 -7.078125 13.617188 -7.039062 13.578125 -7.058594 C 13.539062 -7.078125 13.519531 -7.078125 13.519531 -7.039062 C 13.519531 -6.996094 13.539062 -6.957031 13.578125 -6.957031 C 13.617188 -6.957031 13.636719 -6.9375 13.597656 -6.898438 C 13.578125 -6.859375 13.539062 -6.859375 13.5 -6.878906 Z M 13.121094 -6.917969 C 13.121094 -6.957031 13.160156 -6.996094 13.179688 -7.019531 C 13.21875 -7.039062 13.261719 -7.019531 13.238281 -6.996094 C 13.238281 -6.957031 13.21875 -6.917969 13.179688 -6.898438 C 13.140625 -6.878906 13.121094 -6.878906 13.121094 -6.917969 Z M 13.9375 -6.839844 C 13.835938 -6.679688 13.71875 -6.480469 13.65625 -6.421875 C 13.558594 -6.300781 13.558594 -6.320312 13.597656 -6.519531 C 13.699219 -6.800781 13.796875 -6.957031 13.976562 -7.097656 C 14.15625 -7.234375 14.15625 -7.195312 13.9375 -6.839844 Z M 14.175781 -8.132812 C 14.132812 -8.089844 14.113281 -8.070312 14.113281 -8.109375 C 14.113281 -8.152344 14.15625 -8.210938 14.175781 -8.269531 C 14.234375 -8.308594 14.253906 -8.328125 14.253906 -8.289062 C 14.253906 -8.25 14.214844 -8.191406 14.175781 -8.132812 Z M 12.246094 -6.003906 C 12.105469 -5.765625 11.949219 -5.488281 11.886719 -5.40625 C 11.847656 -5.308594 11.789062 -5.226562 11.75 -5.226562 C 11.710938 -5.25 11.710938 -5.207031 11.730469 -5.167969 C 11.75 -5.128906 11.730469 -5.128906 11.667969 -5.148438 C 11.628906 -5.167969 11.449219 -5.007812 11.253906 -4.730469 C 11.054688 -4.492188 10.855469 -4.234375 10.773438 -4.175781 C 10.695312 -4.136719 10.636719 -4.035156 10.636719 -3.996094 C 10.636719 -3.9375 10.597656 -3.917969 10.574219 -3.917969 C 10.554688 -3.917969 10.476562 -3.835938 10.398438 -3.738281 C 10.335938 -3.65625 10.039062 -3.339844 9.722656 -3.042969 C 9.285156 -2.585938 9.164062 -2.445312 9.203125 -2.324219 C 9.222656 -2.207031 9.203125 -2.207031 9.125 -2.265625 C 9.066406 -2.347656 9.003906 -2.324219 8.828125 -2.167969 C 8.46875 -1.828125 6.363281 -0.515625 6.0625 -0.4375 C 6.003906 -0.417969 5.984375 -0.378906 6.003906 -0.359375 C 6.042969 -0.296875 6.757812 -0.496094 7.058594 -0.636719 C 7.175781 -0.695312 7.316406 -0.753906 7.375 -0.753906 C 7.453125 -0.734375 7.453125 -0.714844 7.355469 -0.578125 C 7.214844 -0.417969 6.402344 -0.0195312 5.863281 0.121094 C 5.40625 0.238281 4.949219 0.257812 4.671875 0.179688 C 4.433594 0.0976562 4.332031 0.0195312 4.492188 0.0195312 C 4.550781 0.0390625 4.613281 0 4.632812 -0.0390625 C 4.671875 -0.078125 4.632812 -0.0976562 4.574219 -0.078125 C 4.375 -0.0585938 4.273438 -0.160156 4.292969 -0.359375 C 4.3125 -0.714844 4.890625 -1.867188 5.269531 -2.324219 C 5.347656 -2.425781 5.546875 -2.703125 5.726562 -2.960938 C 6.203125 -3.636719 7.316406 -4.792969 8.347656 -5.664062 C 9.222656 -6.421875 10.554688 -7.453125 11.09375 -7.792969 C 11.253906 -7.871094 11.390625 -7.992188 11.429688 -8.03125 C 11.472656 -8.070312 11.53125 -8.109375 11.570312 -8.109375 C 11.609375 -8.109375 11.808594 -8.230469 12.027344 -8.371094 C 12.605469 -8.765625 14.351562 -9.722656 14.332031 -9.621094 C 14.332031 -9.382812 13.21875 -7.476562 12.246094 -6.003906 Z M 9.703125 -7.414062 C 9.960938 -7.632812 10.199219 -7.8125 10.238281 -7.8125 C 10.257812 -7.8125 10.140625 -7.695312 9.941406 -7.554688 C 9.324219 -7.078125 9.203125 -7.019531 9.703125 -7.414062 Z M 14.671875 -8.191406 C 14.632812 -8.109375 14.59375 -8.050781 14.550781 -8.050781 C 14.53125 -8.050781 14.550781 -8.109375 14.59375 -8.210938 C 14.691406 -8.390625 14.730469 -8.371094 14.671875 -8.191406 Z M 14.195312 -10.21875 C 13.199219 -9.742188 11.09375 -8.546875 10.296875 -8.011719 C 9.898438 -7.734375 9.304688 -7.296875 8.984375 -7.039062 C 8.667969 -6.777344 8.230469 -6.402344 7.992188 -6.203125 C 7.773438 -6.003906 7.613281 -5.90625 7.652344 -5.964844 C 7.773438 -6.183594 9.523438 -7.59375 10.335938 -8.152344 C 11.113281 -8.6875 12.542969 -9.523438 13.636719 -10.058594 C 13.976562 -10.238281 14.375 -10.4375 14.511719 -10.515625 C 14.769531 -10.636719 14.871094 -10.65625 14.851562 -10.574219 C 14.851562 -10.554688 14.570312 -10.398438 14.195312 -10.21875 Z M 15.464844 -9.960938 C 15.445312 -9.898438 15.40625 -9.898438 15.40625 -9.921875 C 15.40625 -9.960938 15.445312 -10.039062 15.488281 -10.078125 C 15.527344 -10.140625 15.546875 -10.140625 15.546875 -10.117188 C 15.546875 -10.078125 15.507812 -10.019531 15.464844 -9.960938 Z M 16.023438 -12.523438 C 15.964844 -12.464844 15.964844 -12.464844 15.964844 -12.585938 C 15.964844 -12.664062 16.003906 -12.722656 16.042969 -12.722656 C 16.082031 -12.722656 16.101562 -12.703125 16.101562 -12.664062 C 16.101562 -12.644531 16.0625 -12.585938 16.023438 -12.523438 Z M 16.242188 -13.238281 C 16.164062 -13.042969 16.140625 -13 16.140625 -13.101562 C 16.140625 -13.300781 16.320312 -13.777344 16.339844 -13.65625 C 16.339844 -13.597656 16.300781 -13.417969 16.242188 -13.238281 Z M 16.421875 -13.816406 C 16.402344 -13.777344 16.382812 -13.796875 16.382812 -13.875 C 16.382812 -13.9375 16.402344 -13.976562 16.421875 -13.957031 C 16.441406 -13.914062 16.441406 -13.875 16.421875 -13.816406 Z M 18.46875 -12.1875 C 18.609375 -12.226562 19.144531 -12.226562 19.085938 -12.1875 C 19.085938 -12.167969 18.90625 -12.167969 18.707031 -12.148438 C 18.46875 -12.148438 18.390625 -12.148438 18.46875 -12.1875 Z M 15.050781 -17.933594 C 14.96875 -17.933594 14.96875 -17.972656 15.070312 -18.03125 C 15.109375 -18.050781 15.128906 -18.03125 15.128906 -17.992188 C 15.128906 -17.953125 15.089844 -17.933594 15.050781 -17.933594 Z M 15.089844 -18.429688 C 15.128906 -18.429688 15.148438 -18.429688 15.148438 -18.410156 C 15.148438 -18.390625 15.128906 -18.367188 15.089844 -18.328125 C 15.050781 -18.328125 15.007812 -18.328125 15.027344 -18.367188 C 15.027344 -18.410156 15.050781 -18.449219 15.089844 -18.429688 Z M 13.121094 -16.519531 C 13.160156 -16.519531 13.199219 -16.519531 13.199219 -16.5 C 13.199219 -16.480469 13.160156 -16.460938 13.121094 -16.421875 C 13.082031 -16.421875 13.0625 -16.421875 13.0625 -16.460938 C 13.0625 -16.5 13.101562 -16.519531 13.121094 -16.519531 Z M 12.5625 -15.964844 C 12.625 -16.003906 12.664062 -16.042969 12.683594 -16.042969 C 12.703125 -16.042969 12.683594 -16.003906 12.625 -15.945312 C 12.585938 -15.902344 12.523438 -15.863281 12.523438 -15.863281 C 12.503906 -15.863281 12.523438 -15.902344 12.5625 -15.964844 Z M 11.789062 -15.246094 C 11.847656 -15.289062 11.90625 -15.328125 11.929688 -15.328125 C 11.949219 -15.328125 11.90625 -15.289062 11.867188 -15.226562 C 11.828125 -15.1875 11.769531 -15.148438 11.75 -15.148438 C 11.730469 -15.148438 11.75 -15.1875 11.789062 -15.246094 Z M 11.730469 -14.394531 C 11.75 -14.394531 11.730469 -14.351562 11.667969 -14.292969 C 11.628906 -14.253906 11.570312 -14.214844 11.550781 -14.214844 C 11.53125 -14.214844 11.550781 -14.253906 11.609375 -14.292969 C 11.648438 -14.351562 11.710938 -14.394531 11.730469 -14.394531 Z M 11.410156 -14.871094 C 11.53125 -14.988281 11.628906 -15.070312 11.648438 -15.050781 C 11.667969 -15.027344 11.570312 -14.929688 11.449219 -14.832031 L 11.210938 -14.632812 Z M 11.152344 -14.273438 C 11.191406 -14.292969 11.210938 -14.273438 11.210938 -14.234375 C 11.210938 -14.195312 11.171875 -14.175781 11.132812 -14.175781 C 11.054688 -14.175781 11.054688 -14.214844 11.152344 -14.273438 Z M 10.554688 -13.996094 C 10.675781 -14.09375 10.617188 -14.015625 10.398438 -13.796875 C 10.199219 -13.578125 10 -13.398438 9.960938 -13.378906 C 9.820312 -13.300781 10.296875 -13.796875 10.554688 -13.996094 Z M 9.621094 -13.082031 C 9.679688 -13.140625 9.722656 -13.179688 9.742188 -13.179688 C 9.761719 -13.179688 9.742188 -13.140625 9.703125 -13.082031 C 9.640625 -13.042969 9.601562 -13 9.582031 -13 C 9.5625 -13 9.582031 -13.042969 9.621094 -13.082031 Z M 10.535156 -13.160156 C 10.554688 -13.140625 10.296875 -12.882812 9.980469 -12.585938 C 9.660156 -12.265625 9.402344 -12.007812 9.382812 -12.007812 C 9.382812 -11.988281 9.363281 -11.988281 9.363281 -12.027344 C 9.363281 -12.085938 10.515625 -13.199219 10.535156 -13.160156 Z M 8.886719 -12.40625 C 9.144531 -12.605469 9.34375 -12.78125 9.34375 -12.761719 C 9.34375 -12.742188 9.144531 -12.542969 8.886719 -12.34375 C 8.648438 -12.125 8.449219 -11.96875 8.449219 -11.988281 C 8.449219 -12.007812 8.648438 -12.1875 8.886719 -12.40625 Z M 7.890625 -10.617188 C 7.773438 -10.515625 7.714844 -10.476562 7.753906 -10.535156 C 7.8125 -10.65625 8.109375 -10.914062 8.109375 -10.855469 C 8.109375 -10.835938 8.011719 -10.734375 7.890625 -10.617188 Z M 6.820312 -10.4375 C 7.039062 -10.65625 7.296875 -10.894531 7.394531 -10.992188 C 7.496094 -11.09375 7.714844 -11.292969 7.871094 -11.449219 L 8.171875 -11.730469 L 7.933594 -11.449219 C 7.8125 -11.3125 7.414062 -10.933594 7.058594 -10.617188 C 6.679688 -10.316406 6.582031 -10.238281 6.820312 -10.4375 Z M 6.402344 -19.203125 C 6.441406 -19.261719 6.5 -19.304688 6.519531 -19.304688 C 6.539062 -19.304688 6.519531 -19.242188 6.460938 -19.203125 C 6.421875 -19.144531 6.363281 -19.105469 6.339844 -19.105469 C 6.320312 -19.105469 6.363281 -19.164062 6.402344 -19.203125 Z M 6.144531 -18.945312 C 6.222656 -19.003906 6.300781 -19.046875 6.320312 -19.046875 C 6.320312 -19.046875 6.28125 -19.003906 6.222656 -18.925781 C 6.144531 -18.867188 6.082031 -18.804688 6.0625 -18.804688 C 6.042969 -18.804688 6.082031 -18.867188 6.144531 -18.945312 Z M 0.835938 -9.542969 C 0.734375 -9.265625 0.636719 -8.828125 0.617188 -8.507812 C 0.597656 -8.328125 0.554688 -8.171875 0.515625 -8.132812 C 0.476562 -8.089844 0.4375 -7.992188 0.417969 -7.890625 C 0.398438 -7.792969 0.378906 -7.871094 0.378906 -8.070312 C 0.398438 -8.289062 0.4375 -8.566406 0.476562 -8.6875 C 0.515625 -8.808594 0.597656 -9.066406 0.65625 -9.265625 C 0.714844 -9.460938 0.796875 -9.640625 0.835938 -9.660156 C 0.875 -9.679688 0.875 -9.640625 0.835938 -9.542969 Z M 1.054688 -10.039062 C 0.992188 -9.859375 0.914062 -9.722656 0.894531 -9.722656 C 0.855469 -9.742188 0.914062 -9.980469 1.035156 -10.257812 C 1.210938 -10.65625 1.210938 -10.457031 1.054688 -10.039062 Z M 6.339844 -18.367188 C 5.46875 -17.414062 5.007812 -16.859375 4.59375 -16.28125 C 4.332031 -15.902344 4.074219 -15.566406 4.035156 -15.507812 C 3.917969 -15.386719 3.359375 -14.472656 2.804688 -13.519531 C 2.566406 -13.082031 2.285156 -12.585938 2.1875 -12.40625 C 2.066406 -12.226562 1.988281 -11.96875 1.949219 -11.769531 C 1.949219 -11.589844 1.886719 -11.410156 1.847656 -11.371094 C 1.789062 -11.332031 1.789062 -11.351562 1.808594 -11.472656 L 1.847656 -11.609375 L 1.710938 -11.472656 C 1.628906 -11.390625 1.570312 -11.273438 1.570312 -11.210938 C 1.550781 -11.152344 1.511719 -11.074219 1.492188 -11.074219 C 1.453125 -11.035156 1.410156 -10.953125 1.410156 -10.875 C 1.410156 -10.792969 1.351562 -10.695312 1.292969 -10.65625 C 1.191406 -10.574219 1.171875 -10.597656 1.234375 -10.734375 C 1.292969 -10.894531 1.710938 -11.730469 2.066406 -12.445312 C 2.167969 -12.664062 2.347656 -12.960938 2.445312 -13.121094 C 2.703125 -13.5 2.703125 -13.519531 3.0625 -14.132812 C 3.519531 -14.949219 3.796875 -15.40625 3.976562 -15.605469 C 4.054688 -15.707031 4.195312 -15.882812 4.253906 -16.003906 C 4.332031 -16.121094 4.574219 -16.441406 4.792969 -16.71875 C 5.007812 -16.996094 5.226562 -17.296875 5.289062 -17.394531 C 5.445312 -17.632812 5.785156 -18.011719 6.164062 -18.308594 C 6.5 -18.609375 6.601562 -18.628906 6.339844 -18.367188 Z M 6.71875 -18.765625 C 6.640625 -18.707031 6.621094 -18.707031 6.679688 -18.785156 C 6.699219 -18.847656 6.738281 -18.886719 6.757812 -18.867188 C 6.777344 -18.847656 6.757812 -18.785156 6.71875 -18.765625 Z M 7.714844 -19.78125 C 7.652344 -19.722656 7.574219 -19.679688 7.554688 -19.679688 C 7.535156 -19.679688 7.574219 -19.722656 7.652344 -19.800781 C 7.734375 -19.859375 7.792969 -19.898438 7.8125 -19.898438 C 7.832031 -19.898438 7.792969 -19.859375 7.714844 -19.78125 Z M 8.347656 -20.375 C 8.210938 -20.21875 8.070312 -20.078125 8.050781 -20.078125 C 7.972656 -20.097656 8.070312 -20.21875 8.328125 -20.417969 L 8.609375 -20.65625 Z M 8.347656 -20.375 "/></g></g></g><g fill="#33d1cc" fill-opacity="1"><g transform="translate(8.045073, 35.023293)"><g><path d="M 5.261719 0 L 5.792969 0 L 4.609375 -5.433594 L 2.9375 -1.070312 L 1.265625 -5.433594 L 0.0742188 0 L 0.613281 0 L 1.402344 -3.625 L 2.9375 0.300781 L 4.464844 -3.625 Z M 5.261719 0 "/></g></g></g><g fill="#33d1cc" fill-opacity="1"><g transform="translate(15.372874, 35.023293)"><g><path d="M 5.050781 -2.5625 C 5.050781 -1.976562 4.839844 -1.484375 4.4375 -1.078125 C 4.023438 -0.667969 3.527344 -0.464844 2.953125 -0.464844 C 2.375 -0.464844 1.878906 -0.667969 1.476562 -1.078125 C 1.0625 -1.484375 0.863281 -1.976562 0.863281 -2.5625 C 0.863281 -3.132812 1.0625 -3.625 1.476562 -4.039062 C 1.878906 -4.441406 2.375 -4.652344 2.953125 -4.652344 C 3.527344 -4.652344 4.023438 -4.441406 4.4375 -4.039062 C 4.839844 -3.625 5.050781 -3.132812 5.050781 -2.5625 Z M 5.574219 -2.5625 C 5.574219 -2.921875 5.5 -3.257812 5.363281 -3.582031 C 5.230469 -3.894531 5.042969 -4.171875 4.804688 -4.414062 C 4.5625 -4.644531 4.285156 -4.832031 3.972656 -4.96875 C 3.648438 -5.101562 3.3125 -5.175781 2.953125 -5.175781 C 2.59375 -5.175781 2.246094 -5.101562 1.933594 -4.96875 C 1.617188 -4.832031 1.339844 -4.644531 1.101562 -4.414062 C 0.863281 -4.171875 0.675781 -3.894531 0.539062 -3.582031 C 0.40625 -3.257812 0.335938 -2.921875 0.335938 -2.5625 C 0.335938 -2.203125 0.40625 -1.859375 0.539062 -1.542969 C 0.675781 -1.222656 0.863281 -0.945312 1.101562 -0.703125 C 1.339844 -0.464844 1.617188 -0.277344 1.933594 -0.140625 C 2.246094 -0.0078125 2.59375 0.0585938 2.953125 0.0585938 C 3.3125 0.0585938 3.648438 -0.0078125 3.972656 -0.140625 C 4.285156 -0.277344 4.5625 -0.464844 4.804688 -0.703125 C 5.042969 -0.945312 5.230469 -1.222656 5.363281 -1.542969 C 5.5 -1.859375 5.574219 -2.203125 5.574219 -2.5625 Z M 5.574219 -2.5625 "/></g></g></g><g fill="#33d1cc" fill-opacity="1"><g transform="translate(22.745626, 35.023293)"><g><path d="M 1.386719 -1.875 L 2.316406 -4.21875 L 3.238281 -1.875 Z M 4.546875 0 L 2.316406 -5.445312 L 0.0742188 0 L 0.644531 0 L 1.191406 -1.386719 L 3.429688 -1.386719 L 3.980469 0 Z M 4.546875 0 "/></g></g></g><g fill="#33d1cc" fill-opacity="1"><g transform="translate(28.829644, 35.023293)"><g><path d="M 1.140625 -0.488281 L 4.160156 -5.09375 L 0.34375 -5.09375 L 0.34375 -4.609375 L 3.207031 -4.609375 L 0.1875 0 L 4.03125 0 L 4.03125 -0.488281 Z M 1.140625 -0.488281 "/></g></g></g><g fill="#33d1cc" fill-opacity="1"><g transform="translate(34.636437, 35.023293)"><g/></g></g><g fill="#33d1cc" fill-opacity="1"><g transform="translate(38.120506, 35.023293)"><g><path d="M 5.589844 -2.382812 L 2.9375 -2.382812 L 2.9375 -1.925781 L 5.003906 -1.925781 C 4.847656 -1.484375 4.585938 -1.125 4.210938 -0.863281 C 3.835938 -0.59375 3.417969 -0.464844 2.960938 -0.464844 C 2.375 -0.464844 1.878906 -0.667969 1.46875 -1.078125 C 1.0625 -1.492188 0.863281 -1.992188 0.863281 -2.570312 C 0.863281 -3.148438 1.0625 -3.640625 1.476562 -4.054688 C 1.878906 -4.457031 2.375 -4.667969 2.960938 -4.667969 C 3.394531 -4.667969 3.792969 -4.539062 4.144531 -4.292969 C 4.503906 -4.046875 4.757812 -3.722656 4.921875 -3.3125 L 5.476562 -3.3125 C 5.304688 -3.875 4.984375 -4.324219 4.519531 -4.667969 C 4.054688 -5.011719 3.515625 -5.191406 2.90625 -5.191406 C 2.578125 -5.191406 2.253906 -5.117188 1.941406 -4.984375 C 1.617188 -4.847656 1.339844 -4.660156 1.101562 -4.421875 C 0.863281 -4.179688 0.675781 -3.902344 0.539062 -3.589844 C 0.40625 -3.265625 0.335938 -2.921875 0.335938 -2.5625 C 0.335938 -2.203125 0.40625 -1.859375 0.539062 -1.542969 C 0.675781 -1.222656 0.863281 -0.945312 1.101562 -0.703125 C 1.339844 -0.464844 1.617188 -0.277344 1.941406 -0.140625 C 2.253906 -0.0078125 2.601562 0.0585938 2.960938 0.0585938 C 3.574219 0.0585938 4.128906 -0.136719 4.621094 -0.53125 C 5.117188 -0.9375 5.425781 -1.445312 5.535156 -2.066406 Z M 5.589844 -2.382812 "/></g></g></g><g fill="#33d1cc" fill-opacity="1"><g transform="translate(45.508244, 35.023293)"><g><path d="M 1.386719 -1.875 L 2.316406 -4.21875 L 3.238281 -1.875 Z M 4.546875 0 L 2.316406 -5.445312 L 0.0742188 0 L 0.644531 0 L 1.191406 -1.386719 L 3.429688 -1.386719 L 3.980469 0 Z M 4.546875 0 "/></g></g></g><g fill="#33d1cc" fill-opacity="1"><g transform="translate(51.592265, 35.023293)"><g><path d="M 4.519531 -2.546875 C 4.519531 -2.914062 4.441406 -3.25 4.308594 -3.566406 C 4.171875 -3.882812 3.984375 -4.152344 3.753906 -4.375 C 3.515625 -4.601562 3.238281 -4.773438 2.921875 -4.898438 C 2.601562 -5.027344 2.253906 -5.09375 1.894531 -5.09375 L 0.5625 -5.09375 L 0.5625 0 L 1.894531 0 C 2.253906 0 2.601562 -0.0585938 2.921875 -0.1875 C 3.238281 -0.316406 3.515625 -0.496094 3.753906 -0.71875 C 3.984375 -0.945312 4.171875 -1.207031 4.308594 -1.519531 C 4.441406 -1.835938 4.519531 -2.171875 4.519531 -2.546875 Z M 4.007812 -2.546875 C 4.007812 -1.964844 3.796875 -1.476562 3.394531 -1.09375 C 2.988281 -0.710938 2.496094 -0.523438 1.910156 -0.523438 L 1.085938 -0.523438 L 1.085938 -4.570312 L 1.910156 -4.570312 C 2.496094 -4.570312 2.988281 -4.375 3.394531 -4 C 3.796875 -3.613281 4.007812 -3.125 4.007812 -2.546875 Z M 4.007812 -2.546875 "/></g></g></g></svg>